<?xml version="1.0" encoding="utf-8"?>
<!-- Generator: Adobe Illustrator 26.3.1, SVG Export Plug-In . SVG Version: 6.00 Build 0)  -->
<svg version="1.1" id="Layer_1" xmlns="http://www.w3.org/2000/svg" xmlns:xlink="http://www.w3.org/1999/xlink" x="0px" y="0px"
	 viewBox="0 0 49 34" style="enable-background:new 0 0 49 34;" xml:space="preserve">
<style type="text/css">
	.st0{fill:#FFFFFF;}
	.st1{fill:#00A5A0;}
	.st2{fill:#00EFFC;}
</style>
<g>
	<path class="st0" d="M32,33H17C8.2,33,1,25.8,1,17v0C1,8.2,8.2,1,17,1h15c8.8,0,16,7.2,16,16v0C48,25.8,40.8,33,32,33z"/>
	<g id="bg_header_funplay_off">
		<g id="FUNKPLAY_OUTSIDE_01_DEFAULT" transform="translate(1.000000, 1.000000)">
			<path id="Shape" d="M31,1c8.3,0,15,6.7,15,15s-6.7,15-15,15H16C7.7,31,1,24.3,1,16S7.7,1,16,1H31 M31,0H16C7.2,0,0,7.2,0,16
				s7.2,16,16,16h15c8.8,0,16-7.2,16-16S39.8,0,31,0L31,0z"/>
			<circle id="Oval" cx="16" cy="16" r="16"/>
			<g id="Group" transform="translate(9.590000, 9.690000)">
				<g transform="translate(2.920000, 2.630000)">
					<rect id="Rectangle" x="0.1" y="0.1" class="st1" width="3" height="2.8"/>
					<path id="Shape_00000047753715263102640060000014363635747376005039_" d="M3,0.2v2.6H0.2V0.2H3 M3.2,0H0v3h3.2V0L3.2,0z"/>
				</g>
				<g transform="translate(2.920000, 7.120000)">
					
						<rect id="Rectangle_00000137823969569813781160000015819129935218552250_" x="0.1" y="0.1" class="st1" width="3" height="5.9"/>
					<path id="Shape_00000103266593994782603570000017793917453677519789_" d="M3,0.2v5.7H0.2V0.2H3 M3.2,0H0v6.1h3.2V0L3.2,0z"/>
				</g>
				<g transform="translate(10.470000, -0.000000)">
					
						<rect id="Rectangle_00000052085851643409584780000004637024989038195860_" x="0.1" y="0.1" class="st1" width="3.5" height="2.8"/>
					<path id="Shape_00000082335294132960044370000006057505945700207803_" d="M3.6,0.2v2.6H0.2V0.2H3.6 M3.8,0H0v3h3.8V0L3.8,0z"/>
				</g>
				<g transform="translate(10.470000, 4.960000)">
					
						<rect id="Rectangle_00000119088297483519320570000002439919850921859213_" x="0.1" y="0.1" class="st1" width="3.5" height="2.8"/>
					<path id="Shape_00000057130729564488570150000000914832826064159928_" d="M3.6,0.2v2.6H0.2V0.2H3.6 M3.8,0H0v3h3.8V0L3.8,0z"/>
				</g>
				<g transform="translate(0.000000, 0.000000)">
					<polygon id="Path" class="st2" points="0.1,13.1 0.1,0.1 11.1,0.1 11.1,2.9 3.1,2.9 3.1,5.1 11.1,5.1 11.1,7.9 3.1,7.9 
						3.1,13.1 					"/>
					<path id="Shape_00000171000105609058896670000007731386513929581188_" d="M11.1,0.2v2.6H3v2.4h8.1v2.6H3V13H0.2V0.2H11.1
						 M11.3,0H0v13.2h3.2V8h8.1V5H3.2V3h8.1L11.3,0L11.3,0L11.3,0z"/>
				</g>
			</g>
		</g>
	</g>
</g>
</svg>
