<?xml version="1.0" encoding="UTF-8"?><!DOCTYPE svg PUBLIC "-//W3C//DTD SVG 1.1//EN" "http://www.w3.org/Graphics/SVG/1.1/DTD/svg11.dtd"><svg xmlns="http://www.w3.org/2000/svg" xmlns:xlink="http://www.w3.org/1999/xlink"><defs>
        <path d="M11.7417247,18.4675679 L5.94387998,21.2325857 C5.64478125,21.3752272 5.28668004,21.2483936 5.14403853,20.9492949 C5.09411786,20.8446184 5.07560264,20.7277179 5.09073321,20.6127383 L5.9287889,14.2442228 C5.95240337,14.0647727 5.89374861,13.8842519 5.76916598,13.752954 L1.34784519,9.09331348 C1.11975847,8.85293233 1.12972506,8.47316409 1.37010621,8.24507736 C1.4542331,8.16525319 1.5596906,8.1115199 1.67371827,8.09037929 L7.98950989,6.9194381 C8.16747433,6.88644367 8.3210345,6.77487568 8.4074081,6.61581727 L11.4727263,0.970983228 C11.6308597,0.679778002 11.9951206,0.571901955 12.2863258,0.730035333 C12.3882398,0.785377733 12.4719313,0.869069285 12.5272737,0.970983228 L15.5925919,6.61581727 C15.6789655,6.77487568 15.8325257,6.88644367 16.0104901,6.9194381 L22.3262817,8.09037929 C22.6521003,8.15078571 22.8672593,8.46388289 22.8068529,8.78970142 C22.7857123,8.90372908 22.731979,9.00918659 22.6521548,9.09331348 L18.230834,13.752954 C18.1062514,13.8842519 18.0475966,14.0647727 18.0712111,14.2442228 L18.9092668,20.6127383 C18.9525003,20.9412767 18.721215,21.2426575 18.3926766,21.285891 C18.277697,21.3010216 18.1607965,21.2825064 18.05612,21.2325857 L12.2582753,18.4675679 C12.0949054,18.389656 11.9050946,18.389656 11.7417247,18.4675679 Z" id="path-1"/>
    
        <path d="M11.7417247,18.4675679 L5.94387998,21.2325857 C5.64478125,21.3752272 5.28668004,21.2483936 5.14403853,20.9492949 C5.09411786,20.8446184 5.07560264,20.7277179 5.09073321,20.6127383 L5.9287889,14.2442228 C5.95240337,14.0647727 5.89374861,13.8842519 5.76916598,13.752954 L1.34784519,9.09331348 C1.11975847,8.85293233 1.12972506,8.47316409 1.37010621,8.24507736 C1.4542331,8.16525319 1.5596906,8.1115199 1.67371827,8.09037929 L7.98950989,6.9194381 C8.16747433,6.88644367 8.3210345,6.77487568 8.4074081,6.61581727 L11.4727263,0.970983228 C11.6308597,0.679778002 11.9951206,0.571901955 12.2863258,0.730035333 C12.3882398,0.785377733 12.4719313,0.869069285 12.5272737,0.970983228 L15.5925919,6.61581727 C15.6789655,6.77487568 15.8325257,6.88644367 16.0104901,6.9194381 L22.3262817,8.09037929 C22.6521003,8.15078571 22.8672593,8.46388289 22.8068529,8.78970142 C22.7857123,8.90372908 22.731979,9.00918659 22.6521548,9.09331348 L18.230834,13.752954 C18.1062514,13.8842519 18.0475966,14.0647727 18.0712111,14.2442228 L18.9092668,20.6127383 C18.9525003,20.9412767 18.721215,21.2426575 18.3926766,21.285891 C18.277697,21.3010216 18.1607965,21.2825064 18.05612,21.2325857 L12.2582753,18.4675679 C12.0949054,18.389656 11.9050946,18.389656 11.7417247,18.4675679 Z" id="path-1"/>
    
        <path d="M11.7417247,18.4675679 L5.94387998,21.2325857 C5.64478125,21.3752272 5.28668004,21.2483936 5.14403853,20.9492949 C5.09411786,20.8446184 5.07560264,20.7277179 5.09073321,20.6127383 L5.9287889,14.2442228 C5.95240337,14.0647727 5.89374861,13.8842519 5.76916598,13.752954 L1.34784519,9.09331348 C1.11975847,8.85293233 1.12972506,8.47316409 1.37010621,8.24507736 C1.4542331,8.16525319 1.5596906,8.1115199 1.67371827,8.09037929 L7.98950989,6.9194381 C8.16747433,6.88644367 8.3210345,6.77487568 8.4074081,6.61581727 L11.4727263,0.970983228 C11.6308597,0.679778002 11.9951206,0.571901955 12.2863258,0.730035333 C12.3882398,0.785377733 12.4719313,0.869069285 12.5272737,0.970983228 L15.5925919,6.61581727 C15.6789655,6.77487568 15.8325257,6.88644367 16.0104901,6.9194381 L22.3262817,8.09037929 C22.6521003,8.15078571 22.8672593,8.46388289 22.8068529,8.78970142 C22.7857123,8.90372908 22.731979,9.00918659 22.6521548,9.09331348 L18.230834,13.752954 C18.1062514,13.8842519 18.0475966,14.0647727 18.0712111,14.2442228 L18.9092668,20.6127383 C18.9525003,20.9412767 18.721215,21.2426575 18.3926766,21.285891 C18.277697,21.3010216 18.1607965,21.2825064 18.05612,21.2325857 L12.2582753,18.4675679 C12.0949054,18.389656 11.9050946,18.389656 11.7417247,18.4675679 Z" id="path-1"/>
    </defs><symbol id="bg_header_funplay_off" viewBox="0 0 49 34">
    <title>bg_header_funplay_off</title>
    <g id="bg_header_funplay_off" stroke="none" stroke-width="1" fill="none" fill-rule="evenodd">
        <g id="FUNKPLAY_OUTSIDE_01_DEFAULT" transform="translate(1.000000, 1.000000)" fill-rule="nonzero">
            <path d="M31,1 C39.27,1 46,7.73 46,16 C46,24.27 39.27,31 31,31 L16,31 C7.73,31 1,24.27 1,16 C1,7.73 7.73,1 16,1 L31,1 M31,0 L16,0 C7.16,0 0,7.16 0,16 C0,24.84 7.16,32 16,32 L31,32 C39.84,32 47,24.84 47,16 C47,7.16 39.84,0 31,0 L31,0 Z" id="Shape" fill="#000000"/>
            <circle id="Oval" fill="#000000" cx="16" cy="16" r="16"/>
            <g id="Group" transform="translate(9.590000, 9.690000)">
                <g transform="translate(2.920000, 2.630000)">
                    <rect id="Rectangle" fill="#00A5A0" x="0.1" y="0.1" width="3.04" height="2.8"/>
                    <path d="M3.04,0.2 L3.04,2.8 L0.2,2.8 L0.2,0.2 L3.04,0.2 M3.24,0 L1.77635684e-15,0 L1.77635684e-15,3 L3.24,3 L3.24,0 L3.24,0 Z" id="Shape" fill="#000000"/>
                </g>
                <g transform="translate(2.920000, 7.120000)">
                    <rect id="Rectangle" fill="#00A5A0" x="0.1" y="0.1" width="3.04" height="5.9"/>
                    <path d="M3.04,0.2 L3.04,5.9 L0.2,5.9 L0.2,0.2 L3.04,0.2 M3.24,0 L1.77635684e-15,0 L1.77635684e-15,6.1 L3.24,6.1 L3.24,0 L3.24,0 Z" id="Shape" fill="#000000"/>
                </g>
                <g transform="translate(10.470000, -0.000000)">
                    <rect id="Rectangle" fill="#00A5A0" x="0.11" y="0.1" width="3.55" height="2.8"/>
                    <path d="M3.55,0.2 L3.55,2.8 L0.2,2.8 L0.2,0.2 L3.55,0.2 M3.75,0 L0,0 L0,3 L3.75,3 L3.75,0 L3.75,0 Z" id="Shape" fill="#000000"/>
                </g>
                <g transform="translate(10.470000, 4.960000)">
                    <rect id="Rectangle" fill="#00A5A0" x="0.11" y="0.1" width="3.55" height="2.82"/>
                    <path d="M3.55,0.2 L3.55,2.82 L0.2,2.82 L0.2,0.2 L3.55,0.2 M3.75,0 L0,0 L0,3.02 L3.75,3.02 L3.75,0 L3.75,0 Z" id="Shape" fill="#000000"/>
                </g>
                <g transform="translate(0.000000, 0.000000)">
                    <polygon id="Path" fill="#00EFFC" points="0.1 13.12 0.1 0.1 11.15 0.1 11.15 2.9 3.08 2.9 3.08 5.06 11.15 5.06 11.15 7.88 3.08 7.88 3.08 13.12"/>
                    <path d="M11.05,0.2 L11.05,2.8 L2.98,2.8 L2.98,5.16 L11.05,5.16 L11.05,7.78 L2.98,7.78 L2.98,13.02 L0.2,13.02 L0.2,0.2 L11.06,0.2 M11.26,-3.55271368e-15 L0,-3.55271368e-15 L0,13.22 L3.18,13.22 L3.18,7.98 L11.25,7.98 L11.25,4.96 L3.18,4.96 L3.18,3 L11.25,3 L11.25,-3.55271368e-15 L11.25,-3.55271368e-15 L11.26,-3.55271368e-15 Z" id="Shape" fill="#000000"/>
                </g>
            </g>
        </g>
    </g>
</symbol><symbol id="bg_header_funplay_on" viewBox="0 0 49 34">
    <title>bg_header_funplay_on</title>
    <g id="bg_header_funplay_on" stroke="none" stroke-width="1" fill="none" fill-rule="evenodd">
        <g id="FUNKPLAY_INSIDE_02_DEFAULT" transform="translate(1.000000, 1.000000)" fill-rule="nonzero">
            <g id="Group">
                <path d="M16,31.5 C7.45,31.5 0.5,24.55 0.5,16 C0.5,7.45 7.45,0.5 16,0.5 L31,0.5 C39.55,0.5 46.5,7.45 46.5,16 C46.5,24.55 39.55,31.5 31,31.5 L16,31.5 Z" id="Path" fill="#F4FF00"/>
                <path d="M31,1 C39.27,1 46,7.73 46,16 C46,24.27 39.27,31 31,31 L16,31 C7.73,31 1,24.27 1,16 C1,7.73 7.73,1 16,1 L31,1 M31,0 L16,0 C7.16,0 0,7.16 0,16 C0,24.84 7.16,32 16,32 L31,32 C39.84,32 47,24.84 47,16 C47,7.16 39.84,0 31,0 L31,0 Z" id="Shape" fill="#000000"/>
            </g>
            <g id="Group" transform="translate(15.000000, 0.000000)">
                <g>
                    <circle id="Oval" fill="#00EFFC" cx="16" cy="16" r="15.5"/>
                    <path d="M16,1 C24.27,1 31,7.73 31,16 C31,24.27 24.27,31 16,31 C7.73,31 1,24.27 1,16 C1,7.73 7.73,1 16,1 M16,0 C7.16,0 0,7.16 0,16 C0,24.84 7.16,32 16,32 C24.84,32 32,24.84 32,16 C32,7.16 24.84,0 16,0 L16,0 Z" id="Shape" fill="#000000"/>
                </g>
                <g transform="translate(9.590000, 9.690000)">
                    <g transform="translate(2.920000, 2.630000)">
                        <rect id="Rectangle" fill="#B3AEFF" x="0.1" y="0.1" width="3.04" height="2.8"/>
                        <path d="M3.04,0.2 L3.04,2.8 L0.2,2.8 L0.2,0.2 L3.04,0.2 M3.24,0 L0,0 L0,3 L3.24,3 L3.24,0 L3.24,0 Z" id="Shape" fill="#000000"/>
                    </g>
                    <g transform="translate(2.920000, 7.120000)">
                        <rect id="Rectangle" fill="#B3AEFF" x="0.1" y="0.1" width="3.04" height="5.9"/>
                        <path d="M3.04,0.2 L3.04,5.9 L0.2,5.9 L0.2,0.2 L3.04,0.2 M3.24,0 L0,0 L0,6.1 L3.24,6.1 L3.24,0 L3.24,0 Z" id="Shape" fill="#000000"/>
                    </g>
                    <g transform="translate(10.470000, -0.000000)">
                        <rect id="Rectangle" fill="#56FF00" x="0.11" y="0.1" width="3.55" height="2.8"/>
                        <path d="M3.55,0.2 L3.55,2.8 L0.2,2.8 L0.2,0.2 L3.55,0.2 M3.75,0 L0,0 L0,3 L3.75,3 L3.75,0 L3.75,0 Z" id="Shape" fill="#000000"/>
                    </g>
                    <g transform="translate(10.470000, 4.960000)">
                        <rect id="Rectangle" fill="#FFC224" x="0.11" y="0.1" width="3.55" height="2.82"/>
                        <path d="M3.55,0.2 L3.55,2.82 L0.2,2.82 L0.2,0.2 L3.55,0.2 M3.75,0 L0,0 L0,3.02 L3.75,3.02 L3.75,0 L3.75,0 Z" id="Shape" fill="#000000"/>
                    </g>
                    <g transform="translate(0.000000, 0.000000)">
                        <polygon id="Path" fill="#F4FF00" points="0.1 13.12 0.1 0.1 11.15 0.1 11.15 2.9 3.08 2.9 3.08 5.06 11.15 5.06 11.15 7.88 3.08 7.88 3.08 13.12"/>
                        <path d="M11.05,0.2 L11.05,2.8 L2.98,2.8 L2.98,5.16 L11.05,5.16 L11.05,7.78 L2.98,7.78 L2.98,13.02 L0.2,13.02 L0.2,0.2 L11.06,0.2 M11.26,-3.55271368e-15 L0,-3.55271368e-15 L0,13.22 L3.18,13.22 L3.18,7.98 L11.25,7.98 L11.25,4.96 L3.18,4.96 L3.18,3 L11.25,3 L11.25,-3.55271368e-15 L11.25,-3.55271368e-15 L11.26,-3.55271368e-15 Z" id="Shape" fill="#000000"/>
                    </g>
                </g>
            </g>
        </g>
    </g>
</symbol><symbol id="bg_select" viewBox="0 0 12 7">
    <title>bg_select</title>
    <g id="bg_select" stroke="none" stroke-width="1" fill="none" fill-rule="evenodd">
        <g id="Dropdown_PC" transform="translate(1.000000, 1.000000)" stroke="#000000">
            <polyline id="Path" transform="translate(5.000000, 2.500000) rotate(-180.000000) translate(-5.000000, -2.500000) " points="0 5 5 0 10 5"/>
        </g>
    </g>
</symbol><symbol id="btn_header_search" viewBox="0 0 32 19">
    <title>btn_header_search</title>
    <g id="btn_header_search" stroke="none" stroke-width="1" fill="none" fill-rule="evenodd">
        <g id="Icon_Arrow_PC" transform="translate(1.000000, 1.000000)" stroke="#000000">
            <line x1="0" y1="8.5" x2="29" y2="8.5" id="Path-3"/>
            <polyline id="Path" transform="translate(25.500000, 8.500000) rotate(90.000000) translate(-25.500000, -8.500000) " points="17 12.5 25.5 4.5 34 12.5"/>
        </g>
    </g>
</symbol><symbol id="icon_myshop_cart" viewBox="0 0 32 32">
    <title>icon_myshop_cart</title>
    <g id="icon_myshop_cart" stroke="none" stroke-width="1" fill="none" fill-rule="evenodd">
        <g id="Group-4" transform="translate(2.000000, 2.000000)" stroke="#000000" stroke-width="2">
            <path d="M21.2552012,7 C22.5936798,7 23.8134301,7.52709579 24.7130957,8.38849542 C25.6127613,9.24989506 26.1923422,10.4455985 26.250482,11.7828139 L26.7287428,22.7828139 C26.7887171,24.1622226 26.2838978,25.4353522 25.4192327,26.3786231 C24.5588671,27.3172038 23.3422255,27.9291981 21.9712135,27.9943451 L6.26653797,28 C4.88582609,28 3.63582609,27.4403559 2.73100406,26.5355339 C1.83066628,25.6351961 1.27209358,24.3930933 1.26657918,23.0205186 L1.74951804,11.7828139 C1.80765784,10.4455985 2.38723871,9.24989506 3.28690429,8.38849542 C4.18656987,7.52709579 5.40632017,7 6.74479883,7 Z" id="Rectangle"/>
            <path d="M7,14 L7,14 L7,8 C7,3.581722 10.1340068,0 14,0 C17.8659932,0 21,3.581722 21,8 L21,14 L21,14" id="Path"/>
        </g>
    </g>
</symbol><symbol id="icon_myshop_mileage" viewBox="0 0 32 32">
    <title>icon_myshop_mileage</title>
    <g id="icon_myshop_mileage" stroke="none" stroke-width="1" fill="none" fill-rule="evenodd">
        <path d="M16,2.47213595 C16.2062708,2.47213595 16.4125415,2.53579696 16.5877853,2.66311896 L29.4535485,12.0106431 C29.6287922,12.1379651 29.7530786,12.314468 29.8168198,12.5106431 C29.8805609,12.7068183 29.8837569,12.9226658 29.8168198,13.1286771 L24.9025355,28.2532889 C24.8355984,28.4593002 24.7061408,28.632046 24.5392642,28.7532889 C24.3723877,28.8745318 24.1680921,28.9442719 23.951479,28.9442719 L8.04852102,28.9442719 C7.83190789,28.9442719 7.62761233,28.8745318 7.46073577,28.7532889 C7.29385921,28.632046 7.16440164,28.4593002 7.0974645,28.2532889 L2.18318023,13.1286771 C2.11624309,12.9226658 2.11943906,12.7068183 2.18318023,12.5106431 C2.24692141,12.314468 2.37120779,12.1379651 2.5464515,12.0106431 L15.4122147,2.66311896 C15.5874585,2.53579696 15.7937292,2.47213595 16,2.47213595 Z" id="Polygon" stroke="#000000" stroke-width="2"/>
        <g id="M" transform="translate(11.092000, 11.880000)" fill="#000000" fill-rule="nonzero" stroke="#000000">
            <polygon id="Path" points="0 9.12 1.44 9.12 1.44 3.036 4.08 9.12 5.652 9.12 8.292 3.036 8.292 9.12 9.744 9.12 9.744 0 8.136 0 4.86 7.464 1.596 0 0 0"/>
        </g>
    </g>
</symbol><symbol id="ico_basket" viewBox="0 0 112 90">
    <title>ico_basket</title>
    <g id="ico_basket" stroke="none" stroke-width="1" fill="none" fill-rule="evenodd">
        <polyline id="Stroke-1" stroke="#000000" stroke-width="2" points="1 2 13.5722543 2 29.6647399 68.5 88 68.5"/>
        <polyline id="Stroke-3" stroke="#000000" stroke-width="2" points="17.4495 18.9087 97.5005 18.9087 89.5005 59.4997 27.0495 59.4997"/>
        <g id="Group" transform="translate(77.000000, 4.000000)">
            <path d="M34,17 C34,26.389 26.389,34 17,34 C7.611,34 0,26.389 0,17 C0,7.611 7.611,0 17,0 C26.389,0 34,7.611 34,17" id="Fill-4" fill="#000000"/>
            <polygon id="Fill-10" fill="#FFFFFF" points="16 26 18 26 18 8 16 8"/>
            <polygon id="Fill-12" fill="#FFFFFF" points="8 18 26 18 26 16 8 16"/>
        </g>
        <path d="M39,73 C41.071,73 42.945995,73.8395085 44.3032432,75.1967568 C45.6604915,76.554005 46.5,78.429 46.5,80.5 C46.5,82.571 45.6604915,84.445995 44.3032432,85.8032432 C42.945995,87.1604915 41.071,88 39,88 C36.929,88 35.054005,87.1604915 33.6967568,85.8032432 C32.3395085,84.445995 31.5,82.571 31.5,80.5 C31.5,78.429 32.3395085,76.554005 33.6967568,75.1967568 C35.054005,73.8395085 36.929,73 39,73 Z" id="Stroke-8" stroke="#000000" stroke-width="2"/>
        <path d="M78,73 C80.071,73 81.945995,73.8395085 83.3032432,75.1967568 C84.6604915,76.554005 85.5,78.429 85.5,80.5 C85.5,82.571 84.6604915,84.445995 83.3032432,85.8032432 C81.945995,87.1604915 80.071,88 78,88 C75.929,88 74.054005,87.1604915 72.6967568,85.8032432 C71.3395085,84.445995 70.5,82.571 70.5,80.5 C70.5,78.429 71.3395085,76.554005 72.6967568,75.1967568 C74.054005,73.8395085 75.929,73 78,73 Z" id="Stroke-8-Copy" stroke="#000000" stroke-width="2"/>
    </g>
</symbol><symbol id="ico_boardset" viewBox="0 0 21 21">
    <title>ico_boardset</title>
    <g id="ico_boardset" stroke="none" stroke-width="1" fill="none" fill-rule="evenodd">
        <g id="Group" transform="translate(10.000000, 10.931728) rotate(-315.000000) translate(-10.000000, -10.931728) translate(5.757359, -2.689592)" fill="#000000">
            <path d="M4.24264069,0 C6.45177969,-4.05812251e-16 8.24264069,1.790861 8.24264069,4 L8.24264069,21.5 C8.24264069,21.7761424 8.01878306,22 7.74264069,22 L0.742640687,22 C0.466498312,22 0.242640687,21.7761424 0.242640687,21.5 L0.242640687,4 C0.242640687,1.790861 2.03350169,4.05812251e-16 4.24264069,0 Z" id="Rectangle"/>
            <path d="M1.75477274,20.5121321 L6.73050863,25.4878679 C6.84766592,25.6050252 6.84766592,25.7949747 6.73050863,25.912132 C6.67424772,25.9683929 6.59794154,26 6.51837659,26 L1.5426407,26 C1.37695527,26 1.24264069,25.8656854 1.24264069,25.7 L1.24264069,20.7242641 C1.24264069,20.5585787 1.37695527,20.4242641 1.5426407,20.4242641 C1.62220565,20.4242641 1.69851183,20.4558711 1.75477274,20.5121321 Z" id="Rectangle" transform="translate(4.242641, 23.000000) rotate(-45.000000) translate(-4.242641, -23.000000) "/>
        </g>
    </g>
</symbol><symbol id="ico_calendar" viewBox="0 0 22 22">
    <title>ico_calendar</title>
    <g id="ico_calendar" stroke="none" stroke-width="1" fill="none" fill-rule="evenodd">
        <g id="Group-2" transform="translate(1.000000, 1.000000)" stroke="#000000">
            <rect id="Rectangle" x="5.5" y="9.5" width="2" height="2"/>
            <rect id="Rectangle-Copy-4" x="5.5" y="14.5" width="2" height="2"/>
            <rect id="Rectangle-Copy-3" x="12.5" y="9.5" width="2" height="2"/>
            <rect id="Rectangle-Copy-5" x="12.5" y="14.5" width="2" height="2"/>
            <rect id="Rectangle" x="0.5" y="1.5" width="19" height="18" rx="2"/>
            <rect id="Rectangle" x="0.5" y="6.5" width="19" height="1"/>
            <rect id="Rectangle-Copy" x="4.5" y="0.5" width="1" height="3"/>
            <rect id="Rectangle-Copy-2" x="15.5" y="0.5" width="1" height="3"/>
        </g>
    </g>
</symbol><symbol id="ico_camera" viewBox="0 0 67 48">
    <title>ico_camera</title>
    <g id="ico_camera" stroke="none" stroke-width="1" fill="none" fill-rule="evenodd">
        <g id="Icon_Camera" transform="translate(1.000000, 1.000000)" fill-rule="nonzero">
            <path d="M28,17 C32.96,17 37,21.04 37,26 C37,30.96 32.96,35 28,35 C23.04,35 19,30.96 19,26 C19,21.04 23.04,17 28,17 M28,15 C21.92,15 17,19.92 17,26 C17,32.08 21.92,37 28,37 C34.08,37 39,32.08 39,26 C39,19.92 34.08,15 28,15 L28,15 Z" id="Shape" fill="#000000"/>
            <circle id="Oval" fill="#000000" cx="53" cy="12" r="12"/>
            <path d="M9,15 C9.55,15 10,15.45 10,16 C10,16.55 9.55,17 9,17 C8.45,17 8,16.55 8,16 C8,15.45 8.45,15 9,15 M9,13 C7.34,13 6,14.34 6,16 C6,17.66 7.34,19 9,19 C10.66,19 12,17.66 12,16 C12,14.34 10.66,13 9,13 L9,13 Z" id="Shape" fill="#000000"/>
            <path d="M33.5,2 C35.83,2 37.8,3.82 37.98,6.15 L38.12,8 L53,8 C53.55,8 54,8.45 54,9 L54,43 C54,43.55 53.55,44 53,44 L3,44 C2.45,44 2,43.55 2,43 L2,9 C2,8.45 2.45,8 3,8 L16.88,8 L17.02,6.15 C17.2,3.82 19.17,2 21.5,2 L33.5,2 M33.5,0 L21.5,0 C18.08,0 15.28,2.64 15.03,6 L3,6 C1.34,6 0,7.34 0,9 L0,43 C0,44.66 1.34,46 3,46 L53,46 C54.66,46 56,44.66 56,43 L56,9 C56,7.34 54.66,6 53,6 L39.97,6 C39.71,2.64 36.92,0 33.5,0 L33.5,0 Z" id="Shape" fill="#000000"/>
            <rect id="Rectangle" fill="#FFFFFF" x="52" y="5" width="2" height="14"/>
            <rect id="Rectangle" fill="#FFFFFF" transform="translate(53.000000, 12.000000) rotate(90.000000) translate(-53.000000, -12.000000) " x="52" y="5" width="2" height="14"/>
        </g>
    </g>
</symbol><symbol id="ico_camera_small" viewBox="0 0 51 37">
    <title>ico_camera_small</title>
    <g id="ico_camera_small" stroke="none" stroke-width="1" fill="none" fill-rule="evenodd">
        <g id="Icon_Camera-Copy" transform="translate(1.000000, 1.000000)" fill-rule="nonzero">
            <path d="M21,12.4545455 C24.6072727,12.4545455 27.5454545,15.3927273 27.5454545,19 C27.5454545,22.6072727 24.6072727,25.5454545 21,25.5454545 C17.3927273,25.5454545 14.4545455,22.6072727 14.4545455,19 C14.4545455,15.3927273 17.3927273,12.4545455 21,12.4545455 M21,11 C16.5781818,11 13,14.5781818 13,19 C13,23.4218182 16.5781818,27 21,27 C25.4218182,27 29,23.4218182 29,19 C29,14.5781818 25.4218182,11 21,11 L21,11 Z" id="Shape" fill="#000000"/>
            <circle id="Oval" fill="#000000" cx="40" cy="9" r="9"/>
            <path d="M6.5,10.6666667 C6.95833333,10.6666667 7.33333333,11.0416667 7.33333333,11.5 C7.33333333,11.9583333 6.95833333,12.3333333 6.5,12.3333333 C6.04166667,12.3333333 5.66666667,11.9583333 5.66666667,11.5 C5.66666667,11.0416667 6.04166667,10.6666667 6.5,10.6666667 M6.5,9 C5.11666667,9 4,10.1166667 4,11.5 C4,12.8833333 5.11666667,14 6.5,14 C7.88333333,14 9,12.8833333 9,11.5 C9,10.1166667 7.88333333,9 6.5,9 L6.5,9 Z" id="Shape" fill="#000000"/>
            <path d="M25.125,1.52173913 C26.8725,1.52173913 28.35,2.90652174 28.485,4.67934783 L28.59,6.08695652 L39.75,6.08695652 C40.1625,6.08695652 40.5,6.42934783 40.5,6.84782609 L40.5,32.7173913 C40.5,33.1358696 40.1625,33.4782609 39.75,33.4782609 L2.25,33.4782609 C1.8375,33.4782609 1.5,33.1358696 1.5,32.7173913 L1.5,6.84782609 C1.5,6.42934783 1.8375,6.08695652 2.25,6.08695652 L12.66,6.08695652 L12.765,4.67934783 C12.9,2.90652174 14.3775,1.52173913 16.125,1.52173913 L25.125,1.52173913 M25.125,0 L16.125,0 C13.56,0 11.46,2.00869565 11.2725,4.56521739 L2.25,4.56521739 C1.005,4.56521739 0,5.58478261 0,6.84782609 L0,32.7173913 C0,33.9804348 1.005,35 2.25,35 L39.75,35 C40.995,35 42,33.9804348 42,32.7173913 L42,6.84782609 C42,5.58478261 40.995,4.56521739 39.75,4.56521739 L29.9775,4.56521739 C29.7825,2.00869565 27.69,0 25.125,0 L25.125,0 Z" id="Shape" fill="#000000"/>
            <g id="Group" transform="translate(35.000000, 4.000000)" fill="#FFFFFF">
                <rect id="Rectangle" x="4.25" y="0" width="1.5" height="10"/>
                <polygon id="Rectangle" transform="translate(5.000000, 5.000000) rotate(90.000000) translate(-5.000000, -5.000000) " points="4.25 8.8817842e-15 5.75 8.88259918e-15 5.75 10 4.25 10"/>
            </g>
        </g>
    </g>
</symbol><symbol id="ico_close" viewBox="0 0 22 22">
    <title>ico_close</title>
    <g id="ico_close" stroke="none" stroke-width="1" fill="none" fill-rule="evenodd">
        <g id="Icon_ClosePop" transform="translate(1.000000, 1.000000)" stroke="#000000">
            <line x1="0" y1="20" x2="20" y2="0" id="Path-2"/>
            <line x1="0" y1="20" x2="20" y2="0" id="Path-2" transform="translate(10.000000, 10.000000) scale(-1, 1) translate(-10.000000, -10.000000) "/>
        </g>
    </g>
</symbol><symbol id="ico_close_10" viewBox="0 0 12 12">
    <title>ico_close_10</title>
    <g id="ico_close_10" stroke="none" stroke-width="1" fill="none" fill-rule="evenodd">
        <g id="Icon_ClosePop-Copy" transform="translate(1.000000, 1.000000)" stroke="#000000">
            <line x1="0" y1="10" x2="10" y2="0" id="Path-2"/>
            <line x1="0" y1="10" x2="10" y2="0" id="Path-2" transform="translate(5.000000, 5.000000) scale(-1, 1) translate(-5.000000, -5.000000) "/>
        </g>
    </g>
</symbol><symbol id="ico_delete" viewBox="0 0 18 18">
    <title>ico_delete</title>
    <g id="ico_delete" stroke="none" stroke-width="1" fill="none" fill-rule="evenodd">
        <circle id="Oval" fill="#000000" cx="9" cy="9" r="8"/>
        <g id="Icon_ClosePop-Copy" transform="translate(6.000000, 6.000000)" stroke="#FFFFFF">
            <line x1="0" y1="6" x2="6" y2="0" id="Path-2"/>
            <line x1="0" y1="6" x2="6" y2="0" id="Path-2" transform="translate(3.000000, 3.000000) scale(-1, 1) translate(-3.000000, -3.000000) "/>
        </g>
    </g>
</symbol><symbol id="ico_header_search" viewBox="0 0 17 17">
    <title>ico_header_search</title>
    <g id="ico_header_search" stroke="none" stroke-width="1" fill="none" fill-rule="evenodd">
        <g id="SEARCH_ICON_15x15" transform="translate(0.960000, 1.180000)" fill="#000000" fill-rule="nonzero">
            <g id="Group" transform="translate(-0.000000, -0.000000)">
                <path d="M6.5,1 C9.53,1 12,3.47 12,6.5 C12,9.53 9.53,12 6.5,12 C3.47,12 1,9.53 1,6.5 C1,3.47 3.46,1 6.5,1 M6.5,0 C2.91,0 0,2.91 0,6.5 C0,10.09 2.91,13 6.5,13 C10.09,13 13,10.09 13,6.5 C13,2.91 10.09,0 6.5,0 L6.5,0 Z" id="Shape"/>
                <path d="M14.78,14.74 L14.78,14.74 C14.59,14.93 14.27,14.93 14.07,14.74 L10.49,11.16 C10.3,10.97 10.3,10.65 10.49,10.45 L10.49,10.45 C10.68,10.26 11,10.26 11.2,10.45 L14.78,14.03 C14.97,14.22 14.97,14.54 14.78,14.74 L14.78,14.74 Z" id="Path"/>
            </g>
        </g>
    </g>
</symbol><symbol id="ico_info" viewBox="0 0 16 16">
    <title>ico_info</title>
    <g id="ico_info" stroke="none" stroke-width="1" fill="none" fill-rule="evenodd">
        <g id="Group-2" transform="translate(1.000000, 1.000000)">
            <circle id="Oval" fill="#000000" cx="7" cy="7" r="7"/>
            <rect id="Rectangle" fill="#F5F5F5" x="6" y="2" width="2" height="6"/>
            <rect id="Rectangle-Copy" fill="#F5F5F5" x="6" y="10" width="2" height="2"/>
        </g>
    </g>
</symbol><symbol id="ico_like" viewBox="0 0 22 19">
    <title>ico_like</title>
    <g id="ico_like" stroke="none" stroke-width="1" fill="none" fill-rule="evenodd">
        <path d="M14.599656,1.51020436 C15.6241875,1.44980056 16.6665436,1.65853067 17.5863377,2.09611515 C18.4565757,2.51012378 19.2179977,3.12957263 19.7444971,3.92476111 C20.2189001,4.64126661 20.5004744,5.50045153 20.4999994,6.47570019 C20.4985841,9.38125392 18.0605749,13.199889 11.338875,17.4067161 C3.93894999,13.2002703 1.50121353,9.38170696 1.50000044,6.47611178 C1.49959326,5.50083301 1.78123206,4.64160735 2.25569074,3.92505842 C2.78224864,3.1298269 3.5437169,2.51032851 4.41399252,2.09627805 C5.3337981,1.65866275 6.37614875,1.44989643 7.40066886,1.51027249 C8.35551492,1.56654258 9.29559663,1.85714602 10.1028597,2.4198432 C10.3701815,2.60598868 10.6849991,2.69982715 11.0001244,2.69982715 C11.3152496,2.69982715 11.6300672,2.60598868 11.8975848,2.41970684 C12.7046748,1.85713018 13.6447858,1.56650109 14.599656,1.51020436 Z" id="Stroke-1-Copy" stroke="#000000"/>
    </g>
</symbol><symbol id="ico_like_on" viewBox="0 0 22 19">
    <title>ico_like_on</title>
    <g id="ico_like_on" stroke="none" stroke-width="1" fill="none" fill-rule="evenodd">
        <path d="M11.6116682,2.00952191 C17.4144539,-2.03527073 29.4702888,6.64888402 11.603962,17.8306606 C11.2428704,18.0564465 10.7573784,18.0564465 10.3951859,17.8306606 C-7.47004004,6.64995919 4.58579489,-2.03527073 10.3885806,2.00952191 C10.7529748,2.26326222 11.2472739,2.26326222 11.6116682,2.00952191 Z" id="Stroke-1" fill="#000000"/>
    </g>
</symbol><symbol id="ico_login_facebook" viewBox="0 0 42 42">
    <title>ico_login_facebook</title>
    <g id="ico_login_facebook" stroke="none" stroke-width="1" fill="none" fill-rule="evenodd">
        <g id="Group-3" transform="translate(1.000000, 1.000000)">
            <circle id="Oval" fill="#1877F2" cx="20" cy="20" r="20"/>
            <g id="5296500_fb_social-media_facebook_facebook-logo_social-network_icon" transform="translate(14.000000, 9.000000)" fill="#FFFFFF" fill-rule="nonzero">
                <path d="M11.213701,12.8397949 L11.8355796,8.70873438 L7.9451785,8.70873438 L7.9451785,6.02793164 C7.9451785,4.89774219 8.48861682,3.79612305 10.2311468,3.79612305 L12,3.79612305 L12,0.279144531 C12,0.279144531 10.3946854,0 8.86000676,0 C5.65581505,0 3.56164847,1.97844922 3.56164847,5.56020508 L3.56164847,8.70873438 L0,8.70873438 L0,12.8397949 L3.56164847,12.8397949 L3.56164847,22.826377 C4.2758124,22.9405684 5.00778965,23 5.75343553,23 C6.49908141,23 7.23105866,22.9405684 7.9451785,22.826377 L7.9451785,12.8397949 L11.213701,12.8397949 Z" id="Path"/>
            </g>
        </g>
    </g>
</symbol><symbol id="ico_login_kakao" viewBox="0 0 42 42">
    <title>ico_login_kakao</title>
    <g id="ico_login_kakao" stroke="none" stroke-width="1" fill="none" fill-rule="evenodd">
        <g id="Group-2" transform="translate(1.000000, 1.000000)">
            <circle id="Oval-Copy" fill="#FDCC00" cx="20" cy="20" r="20"/>
            <path d="M20.009263,29.32806 C14.6274539,29.32806 10.26358,25.8824882 10.26358,21.6296349 C10.26358,18.8978951 12.0710296,16.4994129 14.7853959,15.130449 L13.8670959,11.7026481 C13.8319533,11.59742 13.8611056,11.486002 13.9373811,11.4101259 C13.9898953,11.3572124 14.0599808,11.32806 14.1360565,11.32806 C14.1947606,11.32806 14.2530654,11.3514218 14.3057793,11.392355 L18.2543296,14.0599975 C18.8277928,13.9781313 19.4128372,13.9314076 20.009263,13.9314076 C25.3910721,13.9314076 29.7553433,17.3767798 29.7553433,21.6296349 C29.7553433,25.8824882 25.3910721,29.32806 20.009263,29.32806" id="path696" fill="#3C1E1E" fill-rule="nonzero" transform="translate(20.009462, 20.328060) scale(-1, 1) rotate(-180.000000) translate(-20.009462, -20.328060) "/>
        </g>
    </g>
</symbol><symbol id="ico_login_naver" viewBox="0 0 42 42">
    <title>ico_login_naver</title>
    <g id="ico_login_naver" stroke="none" stroke-width="1" fill="none" fill-rule="evenodd">
        <g id="Group-5" transform="translate(1.000000, 1.000000)">
            <path d="M20,40 L20,40 C9,40 0,31 0,20 L0,20 C0,9 9,0 20,0 L20,0 C31,0 40,9 40,20 L40,20 C40,31 31,40 20,40" id="Fill-1" fill="#03C75A"/>
            <polygon id="Fill-3" fill="#FFFFFF" points="22.7294 20.5352 17.0464 12.4002 12.3354 12.4002 12.3354 27.6002 17.2704 27.6002 17.2704 19.4652 22.9534 27.6002 27.6644 27.6002 27.6644 12.4002 22.7294 12.4002"/>
        </g>
    </g>
</symbol><symbol id="ico_login_security" viewBox="0 0 18 18">
    <title>ico_login_security</title>
    <g id="ico_login_security" stroke="none" stroke-width="1" fill="none" fill-rule="evenodd">
        <g id="Group-2" transform="translate(3.000000, 1.000000)" stroke="#000000">
            <rect id="Rectangle-Copy" x="2.5" y="0.5" width="7" height="8" rx="3"/>
            <path d="M11,5.5 L11.5,12 C11.5,12.9664983 11.1082492,13.8414983 10.4748737,14.4748737 C9.84149831,15.1082492 8.96649831,15.5 8,15.5 L4,15.5 C3.03350169,15.5 2.15850169,15.1082492 1.52512627,14.4748737 C0.891750844,13.8414983 0.5,12.9664983 0.5,12 L0.5,6 L11,5.5 Z" id="Rectangle" fill="#FFFFFF"/>
            <circle id="Oval" cx="6" cy="10" r="1.5"/>
        </g>
    </g>
</symbol><symbol id="ico_menu_tag_celeb" viewBox="0 0 22 22">
    <title>ico_menu_tag_celeb</title>
    <g id="ico_menu_tag_celeb" stroke="none" stroke-width="1" fill="none" fill-rule="evenodd">
        <g id="TAG_01_CELEB_20x20" transform="translate(1.000000, 3.000000)" fill-rule="nonzero">
            <path d="M9.99809761,15.5028535 C9.23459362,15.5028535 8.52198988,15.208624 7.99262711,14.6708941 L1.90495523,8.60367787 C0.937850162,7.63982245 0.428847496,6.31071655 0.510287922,4.96131896 C0.591728349,3.59162968 1.24325176,2.36398224 2.34269752,1.50158529 C3.14692173,0.872542803 4.12420685,0.547875713 5.17275234,0.547875713 C6.50633933,0.547875713 7.80938615,1.09575143 8.76631116,2.03931516 L9.99809761,3.26696259 L11.3724048,1.8972733 C12.2682495,1.00443881 13.4593157,0.507292327 14.7318224,0.507292327 C16.0043291,0.507292327 17.1953953,1.00443881 18.09124,1.8972733 C18.9870847,2.7901078 19.4859073,3.98731769 19.4859073,5.24540266 C19.4859073,6.51363348 18.9870847,7.70069753 18.09124,8.59353202 L11.9933881,14.6607483 C11.4742053,15.208624 10.7514216,15.5028535 9.99809761,15.5028535 Z" id="Path" fill="#FF9AD4"/>
            <path d="M14.7318224,1.01458465 C15.8618083,1.01458465 16.9307139,1.45085606 17.7349381,2.25237793 C18.5391623,3.05389981 18.9769046,4.10906785 18.9769046,5.24540266 C18.9769046,6.37159163 18.5391623,7.43690552 17.7349381,8.23842739 L11.6472663,14.3056436 C11.209524,14.741915 10.6190809,14.9854153 9.99809761,14.9854153 C9.37711436,14.9854153 8.78667127,14.741915 8.34892898,14.3056436 L2.26125709,8.23842739 C1.40613261,7.38617628 0.948030215,6.19911224 1.02947064,4.9917565 C1.10073101,3.76410907 1.68099405,2.66835764 2.66845923,1.8972733 C3.38106296,1.33925174 4.24636749,1.04502219 5.1829324,1.04502219 C6.37399863,1.04502219 7.55488482,1.53202283 8.4100093,2.39441978 L9.28549388,3.26696259 L9.99809761,3.98731769 L10.7208814,3.26696259 L11.7388867,2.25237793 C12.5329309,1.4610019 13.6018365,1.01458465 14.7318224,1.01458465 M14.7318224,0 C13.3880554,0 12.0341083,0.507292327 11.0059229,1.53202283 L9.98791756,2.54660748 L9.12261303,1.68421053 C8.05370743,0.608750793 6.60813986,0.0405833862 5.17275234,0.0405833862 C4.06312653,0.0405833862 2.95350072,0.385542169 2.03729592,1.10589727 C-0.497537356,3.08433735 -0.670598262,6.7571338 1.53847331,8.9587825 L7.62614519,15.0259987 C8.2776686,15.6753329 9.13279308,16 9.99809761,16 C10.8532221,16 11.7083466,15.6753329 12.37005,15.0259987 L18.4577219,8.9587825 C20.5140927,6.9093215 20.5140927,3.59162968 18.4577219,1.54216867 L18.4577219,1.54216867 C17.4295365,0.517438174 16.0755894,0 14.7318224,0 L14.7318224,0 Z" id="Shape" fill="#000000"/>
        </g>
    </g>
</symbol><symbol id="ico_menu_tag_funkplay" viewBox="0 0 22 22">
    <title>ico_menu_tag_funkplay</title>
    <g id="ico_menu_tag_funkplay" stroke="none" stroke-width="1" fill="none" fill-rule="evenodd">
        <g id="TAG_04_FUNKY_20x20" transform="translate(1.000000, 1.000000)" fill-rule="nonzero">
            <path d="M15.2423901,19.4356659 C14.1262683,19.4356659 13.0777903,19.006772 12.2998873,18.2167043 L12.1984216,18.1151242 C11.5219842,17.51693 10.7440812,17.2009029 9.95490417,17.2009029 C9.1319053,17.2009029 8.3427283,17.5507901 7.68883878,18.2054176 C6.88838782,19.006772 5.85118377,19.4356659 4.73506201,19.4356659 C3.61894025,19.4356659 2.57046223,19.006772 1.79255919,18.2167043 C0.169109357,16.5914221 0.169109357,13.9390519 1.79255919,12.3137698 C3.11161218,10.993228 3.14543405,9.22121896 1.8940248,7.78781038 L1.78128523,7.68623025 C0.1578354,6.06094808 0.1578354,3.41986456 1.78128523,1.78329571 L1.8151071,1.74943567 L1.84892897,1.69300226 C2.57046223,0.993227991 3.61894025,0.553047404 4.72378805,0.553047404 L4.72378805,0.553047404 C5.83990981,0.553047404 6.88838782,0.981941309 7.66629087,1.77200903 L7.76775648,1.87358916 C8.44419391,2.4717833 9.22209696,2.78781038 10.011274,2.78781038 C10.8342728,2.78781038 11.6234498,2.43792325 12.2773393,1.78329571 C13.0665163,0.993227991 14.1149944,0.564334086 15.2198422,0.564334086 C16.32469,0.564334086 17.3844419,0.993227991 18.162345,1.78329571 C19.7857948,3.40857788 19.7857948,6.06094808 18.162345,7.68623025 C16.854566,8.99548533 16.8207441,10.7674944 18.0721533,12.2009029 L18.1736189,12.3024831 C19.7857948,13.9164786 19.7970688,16.5124153 18.2299887,18.1489842 L18.1848929,18.1715576 L18.162345,18.2054176 L18.1285231,18.227991 L18.1059752,18.2731377 C17.3506201,19.0293454 16.32469,19.4356659 15.2423901,19.4356659 Z" id="Path" fill="#B7ADF0"/>
            <path d="M4.73506201,1.12866817 C5.70462232,1.12866817 6.6065389,1.50112867 7.28297632,2.17832957 L7.36189402,2.25733634 L7.38444194,2.27990971 L7.41826381,2.30248307 C8.20744081,2.99097065 9.10935738,3.35214447 10.0338219,3.35214447 C11.0146561,3.35214447 11.9391206,2.94582393 12.6944758,2.17832957 C13.3709132,1.50112867 14.2841037,1.11738149 15.2423901,1.11738149 C16.2006764,1.11738149 17.113867,1.48984199 17.7903044,2.17832957 C18.4667418,2.85553047 18.8500564,3.76975169 18.8500564,4.72911964 C18.8500564,5.68848758 18.4780158,6.6027088 17.7903044,7.27990971 C16.2795941,8.79232506 16.2344983,10.9142212 17.6662909,12.5620767 L17.6888388,12.5959368 L17.7113867,12.6185102 L17.7903044,12.6975169 C18.4667418,13.3747178 18.8500564,14.2889391 18.8500564,15.248307 C18.8500564,16.1851016 18.4892897,17.0767494 17.8466742,17.7539503 L17.7903044,17.8103837 L17.7452086,17.8555305 C17.0687711,18.510158 16.1781285,18.8713318 15.2423901,18.8713318 C14.2841037,18.8713318 13.3709132,18.4988713 12.6944758,17.8103837 L12.6155581,17.731377 L12.5930101,17.7088036 L12.5591883,17.6862302 C11.7700113,16.9977427 10.8680947,16.6365688 9.94363021,16.6365688 C8.96279594,16.6365688 8.03833145,17.0428894 7.27170237,17.8103837 C6.59526494,18.4875847 5.68207441,18.8713318 4.72378805,18.8713318 C3.76550169,18.8713318 2.85231116,18.4988713 2.17587373,17.8103837 C0.766629087,16.3995485 0.766629087,14.1196388 2.18714769,12.6975169 C3.69785795,11.1851016 3.74295378,9.06320542 2.31116122,7.41534989 L2.2886133,7.39277652 L2.25479143,7.37020316 L2.17587373,7.29119639 C0.789177001,5.90293454 0.777903044,3.64559819 2.14205186,2.23476298 L2.18714769,2.18961625 L2.24351747,2.13318284 C2.90868095,1.48984199 3.79932356,1.12866817 4.73506201,1.12866817 M4.73506201,0 C3.52874859,0 2.31116122,0.46275395 1.38669673,1.38826185 C1.38669673,1.38826185 1.38669673,1.38826185 1.38669673,1.38826185 C1.38669673,1.38826185 1.38669673,1.38826185 1.38669673,1.38826185 C-0.462232244,3.23927765 -0.462232244,6.24153499 1.38669673,8.08126411 L1.46561443,8.16027088 C2.49154453,9.33408578 2.5253664,10.778781 1.39797069,11.9074492 L1.38669673,11.9187359 C-0.462232244,13.7697517 -0.462232244,16.772009 1.38669673,18.6117381 L1.38669673,18.6117381 C2.31116122,19.537246 3.51747463,20 4.73506201,20 C5.94137542,20 7.1589628,19.537246 8.08342728,18.6117381 L8.09470124,18.6004515 C8.6583991,18.0361174 9.31228861,17.765237 9.96617813,17.765237 C10.6087937,17.765237 11.2626832,18.0248307 11.837655,18.5327314 L11.9165727,18.6117381 C12.8410372,19.537246 14.0473506,20 15.264938,20 C16.4712514,20 17.6888388,19.537246 18.6133033,18.6117381 C18.6133033,18.6117381 18.6133033,18.6117381 18.6133033,18.6117381 C18.6133033,18.6117381 18.6133033,18.6117381 18.6133033,18.6117381 C20.4622322,16.7607223 20.4622322,13.758465 18.6133033,11.9187359 L18.5343856,11.8397291 C17.5084555,10.6659142 17.4746336,9.22121896 18.6020293,8.09255079 C20.4509583,6.24153499 20.4509583,3.23927765 18.6020293,1.39954853 L18.6020293,1.39954853 C17.6775648,0.474040632 16.4712514,0.0112866817 15.253664,0.0112866817 C14.0360767,0.0112866817 12.8297632,0.474040632 11.9052988,1.39954853 C11.3416009,1.96388262 10.6877114,2.23476298 10.0338219,2.23476298 C9.39120631,2.23476298 8.7373168,1.9751693 8.16234498,1.46726862 L8.08342728,1.38826185 C7.1589628,0.46275395 5.95264938,0 4.73506201,0 L4.73506201,0 Z" id="Shape" fill="#000000"/>
        </g>
    </g>
</symbol><symbol id="ico_menu_tag_mdpick" viewBox="0 0 22 22">
    <title>ico_menu_tag_mdpick</title>
    <g id="ico_menu_tag_mdpick" stroke="none" stroke-width="1" fill="none" fill-rule="evenodd">
        <g id="TAG_03_MDPICK_20x20" transform="translate(1.000000, 1.000000)" fill-rule="nonzero">
            <path d="M17.0631068,19.4299011 C16.6262136,19.4299011 15.9708738,19.3135544 15.4004854,18.7318208 L12.5606796,15.823153 C11.8932039,15.1367074 10.9830097,14.7643979 10,14.7643979 C9.01699029,14.7643979 8.10679612,15.1483421 7.43932039,15.823153 L4.59951456,18.7201862 C4.02912621,19.3019197 3.38592233,19.4182664 2.9368932,19.4182664 C2.34223301,19.4182664 1.75970874,19.1972077 1.32281553,18.8132635 C0.995145631,18.5223967 0.606796117,18.0104712 0.606796117,17.2076789 L0.606796117,2.79232112 C0.606796117,1.57068063 1.63834951,0.581733566 2.91262136,0.581733566 L17.0873786,0.581733566 C18.3616505,0.581733566 19.3932039,1.57068063 19.3932039,2.79232112 L19.3932039,17.2076789 C19.3932039,18.6038394 18.2038835,19.4299011 17.0631068,19.4299011 Z" id="Path" fill="#FC9738"/>
            <path d="M17.0873786,1.16346713 C18.0218447,1.16346713 18.7864078,1.89645143 18.7864078,2.79232112 L18.7864078,17.2076789 C18.7864078,18.23153 17.9126214,18.8365329 17.0631068,18.8365329 C16.7354369,18.8365329 16.2742718,18.7434555 15.8495146,18.3129727 L13.0097087,15.4159395 C12.2330097,14.6247818 11.1407767,14.1710297 10,14.1710297 C8.87135922,14.1710297 7.76699029,14.6247818 6.99029126,15.4159395 L4.15048544,18.3129727 C3.72572816,18.7434555 3.25242718,18.8365329 2.9368932,18.8365329 C2.08737864,18.8365329 1.21359223,18.2198953 1.21359223,17.2076789 L1.21359223,2.79232112 C1.21359223,1.89645143 1.97815534,1.16346713 2.91262136,1.16346713 L17.0873786,1.16346713 M17.0873786,0 L2.91262136,0 C1.29854369,0 0,1.24490983 0,2.79232112 L0,17.2076789 C0,18.8947062 1.44417476,20 2.9368932,20 C3.67718447,20 4.44174757,19.7207679 5.03640777,19.115765 L7.87621359,16.2187318 C8.44660194,15.6369983 9.22330097,15.3344968 10,15.3344968 C10.776699,15.3344968 11.5533981,15.6253636 12.1237864,16.2187318 L14.9635922,19.115765 C15.5582524,19.7324026 16.3228155,20 17.0631068,20 C18.5558252,20 20,18.8947062 20,17.2076789 L20,2.79232112 C20,1.2565445 18.7014563,0 17.0873786,0 L17.0873786,0 Z" id="Shape" fill="#000000"/>
        </g>
    </g>
</symbol><symbol id="ico_menu_tag_picks" viewBox="0 0 22 22">
    <title>ico_menu_tag_picks</title>
    <g id="ico_menu_tag_picks" stroke="none" stroke-width="1" fill="none" fill-rule="evenodd">
        <g id="TAG_02_PICKS_20x20" transform="translate(1.000000, 1.000000)" fill-rule="nonzero">
            <path d="M10,19.4956253 C9.47517366,19.4956253 8.81656805,19.2279979 8.54900952,18.4765826 C8.18883458,17.4575399 7.21121688,16.7678847 6.13069205,16.7678847 C5.74993568,16.7678847 5.37947003,16.8502316 5.0295858,17.0149254 C4.81348083,17.117859 4.58708516,17.1693258 4.36068948,17.1693258 C3.84615385,17.1693258 3.35219964,16.891405 3.06405969,16.4384972 C2.78621045,15.9958827 2.75533831,15.4606279 2.98173399,14.9768399 C3.29045536,14.3180648 3.31103679,13.5666495 3.03318755,12.8975811 C2.75533831,12.2285126 2.20993054,11.7035512 1.52045279,11.4668039 C0.769230769,11.1991765 0.501672241,10.5404014 0.501672241,10.01544 C0.501672241,9.49047864 0.769230769,8.83170355 1.52045279,8.56407617 C2.19963983,8.31703551 2.75533831,7.80236747 3.03318755,7.13329902 C3.31103679,6.46423057 3.29045536,5.70252187 2.98173399,5.05404014 C2.75533831,4.54966547 2.78621045,4.01441071 3.0743504,3.57179619 C3.36249035,3.11888832 3.85644456,2.84096758 4.37098019,2.84096758 C4.59737587,2.84096758 4.82377155,2.89243438 5.03987651,2.99536799 C5.38976074,3.16006176 5.7602264,3.24240865 6.14098276,3.24240865 L6.14098276,3.24240865 C7.22150759,3.24240865 8.19912529,2.55275347 8.55930023,1.53371076 C8.81656805,0.782295419 9.47517366,0.514668039 10,0.514668039 C10.5248263,0.514668039 11.1731412,0.782295419 11.4509905,1.53371076 C11.8111654,2.55275347 12.7887831,3.24240865 13.8693079,3.24240865 C14.2500643,3.24240865 14.62053,3.16006176 14.9704142,2.99536799 C15.1865192,2.89243438 15.4129148,2.84096758 15.6393105,2.84096758 C16.1538462,2.84096758 16.6478004,3.11888832 16.9359403,3.57179619 C17.2137896,4.01441071 17.2446617,4.54966547 17.018266,5.03345342 C16.7095446,5.69222851 16.6889632,6.44364385 16.9668125,7.1127123 C17.2446617,7.78178075 17.7900695,8.30674215 18.4795472,8.54348945 C19.2307692,8.81111683 19.4983278,9.46989192 19.4983278,9.99485332 C19.4983278,10.5198147 19.2307692,11.1785898 18.4795472,11.4462172 C17.8003602,11.6932578 17.2446617,12.2079259 16.9668125,12.8769943 C16.6889632,13.5460628 16.7095446,14.3077715 17.018266,14.9562532 C17.2446617,15.4400412 17.2240803,15.9752959 16.9359403,16.4179104 C16.6478004,16.8708183 16.1538462,17.1487391 15.6393105,17.1487391 C15.4129148,17.1487391 15.1865192,17.0972723 14.9704142,16.9943387 C14.62053,16.8296449 14.2500643,16.747298 13.8693079,16.747298 C12.7887831,16.747298 11.8111654,17.4369532 11.4509905,18.4559959 C11.1731412,19.2279979 10.5248263,19.4956253 10,19.4956253 Z" id="Path" fill="#58E8ED"/>
            <path d="M10,1.02933608 C10.1646514,1.02933608 10.7409313,1.08080288 10.9570363,1.70869789 C11.3892462,2.93360782 12.5623874,3.75707669 13.8590172,3.75707669 C14.3220993,3.75707669 14.7645999,3.65414308 15.1762285,3.45856922 C15.3202984,3.3865157 15.4746591,3.35563562 15.6290198,3.35563562 C15.9686133,3.35563562 16.2979161,3.54091611 16.4934397,3.84971693 C16.6066375,4.02470407 16.7507075,4.37467833 16.5448932,4.81729285 C16.1744276,5.60988163 16.1435554,6.51569738 16.483149,7.31857952 C16.8124518,8.12146166 17.4813481,8.74935666 18.2943144,9.03757077 C18.9220479,9.2640247 18.9735014,9.83015955 18.9735014,9.99485332 C18.9735014,10.1595471 18.9220479,10.7359753 18.2943144,10.9521359 C17.4710574,11.24035 16.8124518,11.868245 16.483149,12.6711271 C16.1538462,13.4740093 16.1744276,14.3901184 16.5448932,15.1724138 C16.7507075,15.6150283 16.6066375,15.9752959 16.4934397,16.1399897 C16.2979161,16.4487905 15.9686133,16.634071 15.6290198,16.634071 C15.4849498,16.634071 15.3305891,16.6031909 15.1762285,16.5311374 C14.7543092,16.3355636 14.3118086,16.23263 13.8590172,16.23263 C12.5623874,16.23263 11.3892462,17.0560988 10.9570363,18.2810087 C10.7306406,18.9089038 10.1646514,18.9603706 10,18.9603706 C9.8353486,18.9603706 9.25906869,18.9089038 9.04296373,18.2810087 C8.61075379,17.0560988 7.43761255,16.23263 6.14098276,16.23263 C5.67790069,16.23263 5.23540005,16.3355636 4.82377155,16.5311374 C4.67970157,16.6031909 4.52534088,16.634071 4.37098019,16.634071 C4.03138667,16.634071 3.70208387,16.4487905 3.50656033,16.1399897 C3.39336249,15.9650026 3.24929251,15.6150283 3.45510677,15.1724138 C3.82557242,14.4004117 3.85644456,13.494596 3.51685104,12.6917138 C3.18754824,11.8888317 2.51865192,11.2609367 1.70568562,10.9727226 C1.07795215,10.7462687 1.02649859,10.1698405 1.02649859,10.0051467 C1.02649859,9.84045291 1.07795215,9.2640247 1.70568562,9.04786413 C2.52894263,8.75965003 3.18754824,8.13175502 3.51685104,7.32887288 C3.85644456,6.51569738 3.82557242,5.60988163 3.45510677,4.81729285 C3.24929251,4.37467833 3.39336249,4.01441071 3.50656033,3.84971693 C3.70208387,3.54091611 4.03138667,3.35563562 4.37098019,3.35563562 C4.51505017,3.35563562 4.66941086,3.3865157 4.82377155,3.45856922 C5.23540005,3.65414308 5.67790069,3.75707669 6.14098276,3.75707669 C7.43761255,3.75707669 8.61075379,2.93360782 9.04296373,1.70869789 C9.25906869,1.08080288 9.8353486,1.02933608 10,1.02933608 M10,0 C9.19732441,0 8.39464883,0.452907874 8.06534603,1.35872362 L8.06534603,1.35872362 C7.76691536,2.21307257 6.97453049,2.72774061 6.14098276,2.72774061 C5.8425521,2.72774061 5.54412143,2.66598044 5.26627219,2.53216675 L5.26627219,2.53216675 C4.95755081,2.3880597 4.65912014,2.32629954 4.37098019,2.32629954 C2.97144327,2.32629954 1.83946488,3.81883685 2.52894263,5.25990736 L2.52894263,5.25990736 C3.05376897,6.36129696 2.5083612,7.66855378 1.3660921,8.06999485 C-0.455364034,8.71847658 -0.455364034,11.2918168 1.3660921,11.9300051 C2.5083612,12.3417396 3.05376897,13.6489964 2.52894263,14.7400926 L2.52894263,14.7400926 C1.83946488,16.1811631 2.97144327,17.6737005 4.37098019,17.6737005 C4.65912014,17.6737005 4.95755081,17.6119403 5.25598148,17.4678332 L5.25598148,17.4678332 C5.54412143,17.3340196 5.8425521,17.2722594 6.13069205,17.2722594 C6.96423977,17.2722594 7.76691536,17.7869274 8.06534603,18.6412764 L8.06534603,18.6412764 C8.38435812,19.5470921 9.19732441,20 10,20 C10.8026756,20 11.6053512,19.5470921 11.934654,18.6412764 L11.934654,18.6412764 C12.2330846,17.7972208 13.0254695,17.2722594 13.8693079,17.2722594 C14.1677386,17.2722594 14.4661693,17.3340196 14.7440185,17.4678332 L14.7440185,17.4678332 C15.0424492,17.6119403 15.3408799,17.6737005 15.6290198,17.6737005 C17.0285567,17.6737005 18.1605351,16.1811631 17.4710574,14.7400926 L17.4710574,14.7400926 C16.946231,13.638703 17.4916388,12.3314462 18.6339079,11.9300051 L18.6339079,11.9300051 C20.455364,11.2815234 20.455364,8.70818322 18.6339079,8.06999485 L18.6339079,8.06999485 C17.4916388,7.65826042 16.946231,6.3510036 17.4710574,5.25990736 L17.4710574,5.25990736 C18.1605351,3.81883685 17.0285567,2.32629954 15.6290198,2.32629954 C15.3408799,2.32629954 15.0424492,2.3880597 14.7440185,2.53216675 C14.4558786,2.66598044 14.1574479,2.72774061 13.8693079,2.72774061 C13.0357602,2.72774061 12.2330846,2.21307257 11.934654,1.35872362 L11.934654,1.35872362 C11.6053512,0.452907874 10.8026756,0 10,0 L10,0 Z" id="Shape" fill="#000000"/>
        </g>
    </g>
</symbol><symbol id="ico_myshop_address" viewBox="0 0 32 32">
    <title>ico_myshop_address</title>
    <g id="ico_myshop_address" stroke="none" stroke-width="1" fill="none" fill-rule="evenodd">
        <g id="Group-2" transform="translate(2.000000, 2.000000)" stroke="#000000" stroke-width="2">
            <path d="M23,10 L23,26 C23,27.1045695 22.1941125,28 21.2,28 L6.8,28 C5.80588745,28 5,27.1045695 5,26 L5,10" id="Path"/>
            <polyline id="Path" stroke-linecap="round" stroke-linejoin="round" points="0 15 14 0 28 15"/>
        </g>
    </g>
</symbol><symbol id="ico_myshop_board" viewBox="0 0 32 32">
    <title>ico_myshop_board</title>
    <g id="ico_myshop_board" stroke="none" stroke-width="1" fill="none" fill-rule="evenodd">
        <g id="Group" transform="translate(2.000000, 0.393398)" stroke="#000000" stroke-width="2">
            <path d="M14,1.60660172 C15.8666667,1.60660172 18.6666667,1.60660172 22.4,1.60660172 C25.4927946,1.60660172 28,4.11380712 28,7.20660172 L28,24.0066017 C28,27.0993963 25.4927946,29.6066017 22.4,29.6066017 L5.6,29.6066017 C2.5072054,29.6066017 0,27.0993963 0,24.0066017 C0,20.2732684 0,17.4732684 0,15.6066017" id="Path" stroke-linecap="round" transform="translate(14.000000, 15.606602) scale(-1, 1) translate(-14.000000, -15.606602) "/>
            <path d="M22,0.606601718 L22,14.5875698 C21.9313161,16.358743 21.5161754,17.9487025 20.8635999,19.0907095 C20.5759211,19.5941475 20.2458528,20.0061075 19.8726087,20.2820608 C19.6023715,20.4818572 19.3111209,20.6066017 19,20.6066017 C18.6887385,20.6066017 18.3973667,20.4817447 18.1271108,20.2817708 C17.7539776,20.0056736 17.4241624,19.5935418 17.1369849,19.0899366 C16.4859493,17.9482559 16.0732691,16.3591712 16.008767,14.589261 L16.0005853,0.606601718 L22,0.606601718 Z" id="Combined-Shape" transform="translate(19.000000, 10.606602) rotate(-315.000000) translate(-19.000000, -10.606602) "/>
        </g>
    </g>
</symbol><symbol id="ico_myshop_coupon" viewBox="0 0 32 32">
    <title>ico_myshop_coupon</title>
    <g id="ico_myshop_coupon" stroke="none" stroke-width="1" fill="none" fill-rule="evenodd">
        <g id="Group-4" transform="translate(5.000000, 1.000000)" fill="#000000">
            <polygon id="Fill-1" points="0 22 22 22 22 20 0 20"/>
            <path d="M22.0278,0 L15.7778,0 C15.7778,2.915 13.6508,5.278 11.0278,5.278 C8.4048,5.278 6.2778,2.915 6.2778,0 L0.0278,0 L0.0278,30 L22.0278,30 L22.0278,0 Z M20.0278,2 L20.0278,28 L2.0278,28 L2.0278,2 L4.5368,2 C5.3448,5.044 7.9488,7.278 11.0278,7.278 C14.1068,7.278 16.7108,5.044 17.5188,2 L20.0278,2 Z" id="Fill-2"/>
        </g>
    </g>
</symbol><symbol id="ico_myshop_order" viewBox="0 0 32 32">
    <title>ico_myshop_order</title>
    <g id="ico_myshop_order" stroke="none" stroke-width="1" fill="none" fill-rule="evenodd">
        <g id="Group-3" transform="translate(3.000000, 1.000000)">
            <rect id="Rectangle" stroke="#000000" stroke-width="2" x="1" y="2" width="24" height="27" rx="3"/>
            <rect id="Rectangle" stroke="#000000" fill="#D8D8D8" x="6.5" y="10.5" width="13" height="1"/>
            <rect id="Rectangle-Copy" stroke="#000000" fill="#D8D8D8" x="6.5" y="15.5" width="13" height="1"/>
            <rect id="Rectangle-Copy-2" stroke="#000000" fill="#D8D8D8" x="6.5" y="20.5" width="9.26666667" height="1"/>
            <g id="Group-2" transform="translate(6.000000, 0.000000)" fill="#000000">
                <rect id="Rectangle" x="0" y="0" width="2" height="5"/>
                <rect id="Rectangle-Copy-3" x="6" y="0" width="2" height="5"/>
                <rect id="Rectangle-Copy-4" x="12" y="0" width="2" height="5"/>
            </g>
        </g>
    </g>
</symbol><symbol id="ico_myshop_profile" viewBox="0 0 32 32">
    <title>ico_myshop_profile</title>
    <g id="ico_myshop_profile" stroke="none" stroke-width="1" fill="none" fill-rule="evenodd">
        <g id="Group" transform="translate(3.000000, 1.000000)" stroke="#000000" stroke-width="2">
            <circle id="Oval" cx="13" cy="5.5" r="4.5"/>
            <path d="M13,14 C16.3142524,14 19.3170527,15.3177523 21.4907913,17.4496882 C23.6574312,19.574662 25,22.509184 25,25.75 C25,26.0971155 24.7506255,26.3813538 24.4245337,26.6514648 C23.8680777,27.112393 23.042644,27.5015411 22.0259627,27.8339177 C19.7410199,28.5809182 16.5396415,29 13,29 C9.46035847,29 6.25898013,28.5809182 3.97403732,27.8339177 C2.95735603,27.5015411 2.13192232,27.112393 1.57546629,26.6514648 C1.24937445,26.3813538 1,26.0971155 1,25.75 C1,22.509184 2.34256879,19.574662 4.50920867,17.4496882 C6.68294733,15.3177523 9.68574757,14 13,14 Z" id="Path"/>
        </g>
    </g>
</symbol><symbol id="ico_myshop_review" viewBox="0 0 32 32">
    <title>ico_myshop_review</title>
    <g id="ico_myshop_review" stroke="none" stroke-width="1" fill="none" fill-rule="evenodd">
        <path d="M27,2 C27.8284271,2 28.5784271,2.33578644 29.1213203,2.87867966 C29.6642136,3.42157288 30,4.17157288 30,5 L30,20.2929286 C30,21.1213557 29.6642136,21.8713557 29.1213203,22.4142489 C28.5784271,22.9571421 27.8284271,23.2929286 27.0000848,23.2929286 L15.7338211,23.2919731 L7.46318787,29.1262265 L6.90952614,23.2911546 L5,23.2929286 C4.17157288,23.2929286 3.42157288,22.9571421 2.87867966,22.4142489 C2.33578644,21.8713557 2,21.1213557 2,20.2929286 L2,5 C2,4.17157288 2.33578644,3.42157288 2.87867966,2.87867966 C3.42157288,2.33578644 4.17157288,2 5,2 Z" id="Combined-Shape" stroke="#000000" stroke-width="2"/>
    </g>
</symbol><symbol id="ico_reviewcnt" viewBox="0 0 26 24">
    <title>ico_reviewcnt</title>
    <g id="ico_reviewcnt" stroke="none" stroke-width="1" fill="none" fill-rule="evenodd">
        <g id="Group-2" transform="translate(1.000000, 1.000000)" fill="#000000">
            <rect id="Rectangle" x="0" y="0" width="24" height="17" rx="8.5"/>
            <path d="M12.3577709,16.7155418 L14.7105573,21.4211146 C14.809353,21.618706 14.7292632,21.8589752 14.5316718,21.9577709 C14.4761297,21.985542 14.4148844,22 14.3527864,22 L9.64721361,22 C9.4262997,22 9.2472136,21.8209139 9.2472136,21.6 C9.2472136,21.537902 9.26167164,21.4766567 9.28944272,21.4211146 L11.6422291,16.7155418 C11.7410248,16.5179504 11.981294,16.4378606 12.1788854,16.5366563 C12.2562964,16.5753618 12.3190654,16.6381308 12.3577709,16.7155418 Z" id="Triangle" transform="translate(12.000000, 19.000000) rotate(-180.000000) translate(-12.000000, -19.000000) "/>
        </g>
    </g>
</symbol><symbol id="ico_share" viewBox="0 0 23 22">
    <title>ico_share</title>
    <g id="ico_share" stroke="none" stroke-width="1" fill="none" fill-rule="evenodd">
        <g id="Group-2" transform="translate(1.000000, 1.000000)" stroke="#000000">
            <rect id="Rectangle" fill="#D8D8D8" x="10.5" y="0.5" width="1" height="13"/>
            <path d="M21,10 L21,10 L21,17 C21,18.6568542 19.6568542,20 18,20 L3,20 C1.34314575,20 0,18.6568542 0,17 L0,10 L0,10" id="Path"/>
            <polyline id="Path" stroke-linecap="round" stroke-linejoin="round" points="5 6 10.5 0 16 6"/>
        </g>
    </g>
</symbol><symbol id="ico_shipp" viewBox="0 0 34 24">
    <title>ico_shipp</title>
    <g id="ico_shipp" stroke="none" stroke-width="1" fill="none" fill-rule="evenodd">
        <g id="Group-3" transform="translate(1.000000, 1.000000)">
            <path d="M18,2.5 C18.4142136,2.5 18.7892136,2.66789322 19.0606602,2.93933983 C19.3321068,3.21078644 19.5,3.58578644 19.5,4 L19.5,18.5 L4,18.5 C3.58578644,18.5 3.21078644,18.3321068 2.93933983,18.0606602 C2.66789322,17.7892136 2.5,17.4142136 2.5,17 L2.5,4 C2.5,3.58578644 2.66789322,3.21078644 2.93933983,2.93933983 C3.21078644,2.66789322 3.58578644,2.5 4,2.5 Z" id="Rectangle" stroke="#000000"/>
            <path d="M25.9620657,6.5 C26.6473437,6.5 27.3025795,6.78130021 27.7745643,7.27812635 L30.8124986,10.4759519 C31.2538913,10.9405758 31.5,11.5569644 31.5,12.1978255 L31.5,17 C31.5,17.4142136 31.3321068,17.7892136 31.0606602,18.0606602 C30.7892136,18.3321068 30.4142136,18.5 30,18.5 L19.5,18.5 L19.5,6.5 Z" id="Polygon" stroke="#000000"/>
            <circle id="Oval" stroke="#000000" fill="#FFFFFF" cx="9" cy="19" r="2.5"/>
            <circle id="Oval-Copy" stroke="#000000" fill="#FFFFFF" cx="25" cy="19" r="2.5"/>
            <g id="Group-2">
                <circle id="Oval" fill="#000000" cx="6" cy="6" r="6"/>
                <polyline id="Path-3" stroke="#FFFFFF" stroke-linecap="round" stroke-linejoin="round" points="3 5.75 5 8.25 9 4"/>
            </g>
        </g>
    </g>
</symbol><symbol id="ico_star" viewBox="0 0 24 24">
    <title>ico_star</title>
    
    <g id="ico_star" stroke="none" stroke-width="1" fill="none" fill-rule="evenodd">
        <g id="Group-2" transform="translate(0.000000, 1.000000)">
            <mask id="mask-2" fill="white">
                <use xlink:href="#path-1"/>
            </mask>
            <use id="Star-Copy" stroke="#000000" xlink:href="#path-1"/>
        </g>
        <path d="M11.7417247,19.4675679 L5.94387998,22.2325857 C5.64478125,22.3752272 5.28668004,22.2483936 5.14403853,21.9492949 C5.09411786,21.8446184 5.07560264,21.7277179 5.09073321,21.6127383 L5.9287889,15.2442228 C5.95240337,15.0647727 5.89374861,14.8842519 5.76916598,14.752954 L1.34784519,10.0933135 C1.11975847,9.85293233 1.12972506,9.47316409 1.37010621,9.24507736 C1.4542331,9.16525319 1.5596906,9.1115199 1.67371827,9.09037929 L7.98950989,7.9194381 C8.16747433,7.88644367 8.3210345,7.77487568 8.4074081,7.61581727 L11.4727263,1.97098323 C11.6308597,1.679778 11.9951206,1.57190195 12.2863258,1.73003533 C12.3882398,1.78537773 12.4719313,1.86906929 12.5272737,1.97098323 L15.5925919,7.61581727 C15.6789655,7.77487568 15.8325257,7.88644367 16.0104901,7.9194381 L22.3262817,9.09037929 C22.6521003,9.15078571 22.8672593,9.46388289 22.8068529,9.78970142 C22.7857123,9.90372908 22.731979,10.0091866 22.6521548,10.0933135 L18.230834,14.752954 C18.1062514,14.8842519 18.0475966,15.0647727 18.0712111,15.2442228 L18.9092668,21.6127383 C18.9525003,21.9412767 18.721215,22.2426575 18.3926766,22.285891 C18.277697,22.3010216 18.1607965,22.2825064 18.05612,22.2325857 L12.2582753,19.4675679 C12.0949054,19.389656 11.9050946,19.389656 11.7417247,19.4675679 Z" id="Star-Copy" stroke="#000000" fill="#00EFFC"/>
    </g>
</symbol><symbol id="ico_start_half" viewBox="0 0 24 24">
    <title>ico_start_half</title>
    
    <g id="ico_start_half" stroke="none" stroke-width="1" fill="none" fill-rule="evenodd">
        <g id="Group-3" transform="translate(0.000000, 1.000000)">
            <g id="Group-2">
                <mask id="mask-2" fill="white">
                    <use xlink:href="#path-1"/>
                </mask>
                <use id="Star-Copy" stroke="#000000" xlink:href="#path-1"/>
                <rect id="Rectangle" fill="#00EFFC" mask="url(#mask-2)" x="0" y="-2" width="12" height="29"/>
            </g>
            <path d="M11.7417247,18.4675679 L5.94387998,21.2325857 C5.64478125,21.3752272 5.28668004,21.2483936 5.14403853,20.9492949 C5.09411786,20.8446184 5.07560264,20.7277179 5.09073321,20.6127383 L5.9287889,14.2442228 C5.95240337,14.0647727 5.89374861,13.8842519 5.76916598,13.752954 L1.34784519,9.09331348 C1.11975847,8.85293233 1.12972506,8.47316409 1.37010621,8.24507736 C1.4542331,8.16525319 1.5596906,8.1115199 1.67371827,8.09037929 L7.98950989,6.9194381 C8.16747433,6.88644367 8.3210345,6.77487568 8.4074081,6.61581727 L11.4727263,0.970983228 C11.6308597,0.679778002 11.9951206,0.571901955 12.2863258,0.730035333 C12.3882398,0.785377733 12.4719313,0.869069285 12.5272737,0.970983228 L15.5925919,6.61581727 C15.6789655,6.77487568 15.8325257,6.88644367 16.0104901,6.9194381 L22.3262817,8.09037929 C22.6521003,8.15078571 22.8672593,8.46388289 22.8068529,8.78970142 C22.7857123,8.90372908 22.731979,9.00918659 22.6521548,9.09331348 L18.230834,13.752954 C18.1062514,13.8842519 18.0475966,14.0647727 18.0712111,14.2442228 L18.9092668,20.6127383 C18.9525003,20.9412767 18.721215,21.2426575 18.3926766,21.285891 C18.277697,21.3010216 18.1607965,21.2825064 18.05612,21.2325857 L12.2582753,18.4675679 C12.0949054,18.389656 11.9050946,18.389656 11.7417247,18.4675679 Z" id="Star-Copy" stroke="#000000"/>
        </g>
    </g>
</symbol><symbol id="ico_star_blank" viewBox="0 0 24 24">
    <title>ico_star_blank</title>
    <g id="ico_star_blank" stroke="none" stroke-width="1" fill="none" fill-rule="evenodd">
        <path d="M11.7417247,19.4675679 L5.94387998,22.2325857 C5.64478125,22.3752272 5.28668004,22.2483936 5.14403853,21.9492949 C5.09411786,21.8446184 5.07560264,21.7277179 5.09073321,21.6127383 L5.9287889,15.2442228 C5.95240337,15.0647727 5.89374861,14.8842519 5.76916598,14.752954 L1.34784519,10.0933135 C1.11975847,9.85293233 1.12972506,9.47316409 1.37010621,9.24507736 C1.4542331,9.16525319 1.5596906,9.1115199 1.67371827,9.09037929 L7.98950989,7.9194381 C8.16747433,7.88644367 8.3210345,7.77487568 8.4074081,7.61581727 L11.4727263,1.97098323 C11.6308597,1.679778 11.9951206,1.57190195 12.2863258,1.73003533 C12.3882398,1.78537773 12.4719313,1.86906929 12.5272737,1.97098323 L15.5925919,7.61581727 C15.6789655,7.77487568 15.8325257,7.88644367 16.0104901,7.9194381 L22.3262817,9.09037929 C22.6521003,9.15078571 22.8672593,9.46388289 22.8068529,9.78970142 C22.7857123,9.90372908 22.731979,10.0091866 22.6521548,10.0933135 L18.230834,14.752954 C18.1062514,14.8842519 18.0475966,15.0647727 18.0712111,15.2442228 L18.9092668,21.6127383 C18.9525003,21.9412767 18.721215,22.2426575 18.3926766,22.285891 C18.277697,22.3010216 18.1607965,22.2825064 18.05612,22.2325857 L12.2582753,19.4675679 C12.0949054,19.389656 11.9050946,19.389656 11.7417247,19.4675679 Z" id="Star" stroke="#000000"/>
    </g>
</symbol><symbol id="ico_star_half" viewBox="0 0 24 24">
    <title>ico_star_half</title>
    
    <g id="ico_star_half" stroke="none" stroke-width="1" fill="none" fill-rule="evenodd">
        <g id="Group-3" transform="translate(0.000000, 1.000000)">
            <g id="Group-2">
                <mask id="mask-2" fill="white">
                    <use xlink:href="#path-1"/>
                </mask>
                <use id="Star-Copy" stroke="#000000" xlink:href="#path-1"/>
                <rect id="Rectangle" fill="#00EFFC" mask="url(#mask-2)" x="0" y="-2" width="12" height="29"/>
            </g>
            <path d="M11.7417247,18.4675679 L5.94387998,21.2325857 C5.64478125,21.3752272 5.28668004,21.2483936 5.14403853,20.9492949 C5.09411786,20.8446184 5.07560264,20.7277179 5.09073321,20.6127383 L5.9287889,14.2442228 C5.95240337,14.0647727 5.89374861,13.8842519 5.76916598,13.752954 L1.34784519,9.09331348 C1.11975847,8.85293233 1.12972506,8.47316409 1.37010621,8.24507736 C1.4542331,8.16525319 1.5596906,8.1115199 1.67371827,8.09037929 L7.98950989,6.9194381 C8.16747433,6.88644367 8.3210345,6.77487568 8.4074081,6.61581727 L11.4727263,0.970983228 C11.6308597,0.679778002 11.9951206,0.571901955 12.2863258,0.730035333 C12.3882398,0.785377733 12.4719313,0.869069285 12.5272737,0.970983228 L15.5925919,6.61581727 C15.6789655,6.77487568 15.8325257,6.88644367 16.0104901,6.9194381 L22.3262817,8.09037929 C22.6521003,8.15078571 22.8672593,8.46388289 22.8068529,8.78970142 C22.7857123,8.90372908 22.731979,9.00918659 22.6521548,9.09331348 L18.230834,13.752954 C18.1062514,13.8842519 18.0475966,14.0647727 18.0712111,14.2442228 L18.9092668,20.6127383 C18.9525003,20.9412767 18.721215,21.2426575 18.3926766,21.285891 C18.277697,21.3010216 18.1607965,21.2825064 18.05612,21.2325857 L12.2582753,18.4675679 C12.0949054,18.389656 11.9050946,18.389656 11.7417247,18.4675679 Z" id="Star-Copy" stroke="#000000"/>
        </g>
    </g>
</symbol><symbol id="ico_star_small" viewBox="0 0 12 12">
    <title>ico_star_small</title>
    <g id="ico_star_small" stroke="none" stroke-width="1" fill="none" fill-rule="evenodd">
        <path d="M5.66716745,1.53131539 C6.12903182,1.3733111 6.29260248,1.40764484 6.33283255,1.53131539 L7.20037863,4.19822335 C7.25730212,4.37321084 7.3672992,4.51994347 7.50906874,4.62294507 C7.65083828,4.72594667 7.82438027,4.78521723 8.00839359,4.78528058 L10.8128603,4.78624605 C10.9095101,4.78627932 10.9969966,4.82548453 11.0603123,4.88884388 C11.1236281,4.95220323 11.162773,5.03971671 11.1627398,5.13636655 C11.1627012,5.24831835 11.1091103,5.35349638 11.0185621,5.41933118 L8.75026838,7.06853641 C8.60143571,7.17674798 8.49587565,7.3267043 8.44172451,7.49336439 C8.38757336,7.66002447 8.38483114,7.84338833 8.44163413,8.01841497 L9.30734378,10.6859196 C9.33717857,10.7778494 9.32692702,10.8731691 9.28623434,10.952965 C9.24554166,11.032761 9.17440785,11.0970332 9.08247811,11.126868 C8.97599371,11.1614264 8.85940296,11.1429602 8.7688094,11.0771878 L6.49938071,9.42954468 C6.35047357,9.32143562 6.17523679,9.26738108 6,9.26738108 C5.82476321,9.26738108 5.64952643,9.32143562 5.50061929,9.42954468 L3.2311906,11.0771878 C3.15297969,11.1339702 3.05915737,11.1536758 2.97069217,11.1396331 C2.88222697,11.1255903 2.7991189,11.0777993 2.74233647,10.9995883 C2.67656403,10.9089948 2.65809787,10.792404 2.69265622,10.6859196 L3.55836587,8.01841497 C3.61516886,7.84338833 3.61242664,7.66002447 3.55827549,7.49336439 C3.50412435,7.3267043 3.39856429,7.17674798 3.24973162,7.06853641 L0.981437907,5.41933118 C0.903266108,5.36249492 0.855532274,5.27935396 0.841550456,5.19087911 C0.827568638,5.10240426 0.847338835,5.00859553 0.9041751,4.93042374 C0.970009897,4.83987548 1.07518793,4.78628459 1.18713974,4.78624605 L3.99160641,4.78528058 C4.17561973,4.78521723 4.34916172,4.72594667 4.49093126,4.62294507 C4.6327008,4.51994347 4.74269788,4.37321084 4.79962137,4.19822335 Z" id="Star-Copy" stroke="#000000" stroke-width="0.5" fill="#00EFFC"/>
    </g>
</symbol><symbol id="ico_star_xs" viewBox="0 0 12 12">
    <title>ico_star_xs</title>
    <g id="ico_star_xs" stroke="none" stroke-width="1" fill="none" fill-rule="evenodd">
        <path d="M5.66716745,1.53131539 C6.12903182,1.3733111 6.29260248,1.40764484 6.33283255,1.53131539 L7.20037863,4.19822335 C7.25730212,4.37321084 7.3672992,4.51994347 7.50906874,4.62294507 C7.65083828,4.72594667 7.82438027,4.78521723 8.00839359,4.78528058 L10.8128603,4.78624605 C10.9095101,4.78627932 10.9969966,4.82548453 11.0603123,4.88884388 C11.1236281,4.95220323 11.162773,5.03971671 11.1627398,5.13636655 C11.1627012,5.24831835 11.1091103,5.35349638 11.0185621,5.41933118 L8.75026838,7.06853641 C8.60143571,7.17674798 8.49587565,7.3267043 8.44172451,7.49336439 C8.38757336,7.66002447 8.38483114,7.84338833 8.44163413,8.01841497 L9.30734378,10.6859196 C9.33717857,10.7778494 9.32692702,10.8731691 9.28623434,10.952965 C9.24554166,11.032761 9.17440785,11.0970332 9.08247811,11.126868 C8.97599371,11.1614264 8.85940296,11.1429602 8.7688094,11.0771878 L6.49938071,9.42954468 C6.35047357,9.32143562 6.17523679,9.26738108 6,9.26738108 C5.82476321,9.26738108 5.64952643,9.32143562 5.50061929,9.42954468 L3.2311906,11.0771878 C3.15297969,11.1339702 3.05915737,11.1536758 2.97069217,11.1396331 C2.88222697,11.1255903 2.7991189,11.0777993 2.74233647,10.9995883 C2.67656403,10.9089948 2.65809787,10.792404 2.69265622,10.6859196 L3.55836587,8.01841497 C3.61516886,7.84338833 3.61242664,7.66002447 3.55827549,7.49336439 C3.50412435,7.3267043 3.39856429,7.17674798 3.24973162,7.06853641 L0.981437907,5.41933118 C0.903266108,5.36249492 0.855532274,5.27935396 0.841550456,5.19087911 C0.827568638,5.10240426 0.847338835,5.00859553 0.9041751,4.93042374 C0.970009897,4.83987548 1.07518793,4.78628459 1.18713974,4.78624605 L3.99160641,4.78528058 C4.17561973,4.78521723 4.34916172,4.72594667 4.49093126,4.62294507 C4.6327008,4.51994347 4.74269788,4.37321084 4.79962137,4.19822335 Z" id="Star-Copy" stroke="#000000" stroke-width="0.5" fill="#00EFFC"/>
    </g>
</symbol><symbol id="logo" viewBox="0 0 163 13">
    <title>logo</title>
    <g id="logo" stroke="none" stroke-width="1" fill="none" fill-rule="evenodd">
        <g id="Logo_MO_X2" transform="translate(1.000000, 1.000000)" fill="#1C1C1B" fill-rule="nonzero">
            <polygon id="Path" points="1.58331177 10.9976572 -3.50591969e-15 10.9976572 -3.50591969e-15 0.184208017 1.58331177 0.184208017"/>
            <polygon id="Path" points="18.3857145 10.9976572 16.7695084 10.9976572 10.5524878 2.50873776 10.5195936 2.50873776 10.5195936 10.9976572 9.02619284 10.9976572 9.02619284 0.184208017 10.6336271 0.184208017 16.8506477 8.67312748 16.883542 8.67312748 16.883542 0.184208017 18.3857145 0.184208017 18.3857145 10.9976572"/>
            <path d="M32.6793794,3.35741041 C32.6157838,2.6688233 32.3416647,2.15128649 31.8592152,1.80479998 C31.3767656,1.45831347 30.6881785,1.28507022 29.7890679,1.28507022 C28.9776755,1.28507022 28.3175967,1.42322623 27.8088317,1.6973453 C27.3000667,1.97365733 27.0456842,2.37496765 27.0456842,2.89908332 C27.0456842,3.36618222 27.240857,3.71486168 27.6333955,3.94292875 C28.025934,4.17318877 28.7759238,4.39906289 29.8855578,4.624937 C30.8701936,4.82230274 31.6728142,5.02405437 32.2956127,5.23019192 C32.9184113,5.43632946 33.4512987,5.75650054 33.8942752,6.1928981 C34.3372516,6.62929567 34.5587398,7.21262106 34.5587398,7.94506722 C34.5587398,8.87487912 34.1508506,9.64679843 33.3372652,10.2608251 C32.5236798,10.8748519 31.4600978,11.1818652 30.1509051,11.1818652 C28.4776823,11.1818652 27.2276993,10.8419576 26.3965703,10.1643352 C25.5654412,9.48671289 25.1268507,8.60514595 25.0786058,7.52402032 L26.5720065,7.40779384 C26.642181,8.27181715 27.010597,8.9033875 27.6750616,9.30031192 C28.3417192,9.69504338 29.1443399,9.89460207 30.0851165,9.89460207 C30.9666835,9.89460207 31.6793931,9.73013062 32.2254382,9.39899478 C32.7692905,9.0700519 33.0412166,8.62268957 33.0412166,8.0569078 C33.0412166,7.49112603 32.7561328,7.03718485 32.1881581,6.76525873 C31.6201833,6.49552556 30.666249,6.22798534 29.3263549,5.96483103 C27.9864609,5.70167672 27.0215618,5.33326069 26.4338505,4.85519703 C25.8439462,4.37932631 25.5478976,3.75872073 25.5478976,2.99557323 C25.5478976,2.13154991 25.9206996,1.41445442 26.6684964,0.848672651 C27.4162932,0.285083836 28.4316303,0 29.7210864,0 C31.0105425,0 32.1026329,0.282890884 32.9074465,0.844286746 C33.7100672,1.40787556 34.1376929,2.20830325 34.1859379,3.24556983 L32.6749935,3.35741041 L32.6793794,3.35741041 Z" id="Path"/>
            <polygon id="Path" points="49.8326546 1.46927823 45.8963047 1.46927823 45.8963047 10.9976572 44.3151859 10.9976572 44.3151859 1.46927823 40.4095373 1.46927823 40.4095373 0.184208017 49.8326546 0.184208017 49.8326546 1.46708528"/>
            <path d="M65.9201547,10.9976572 L64.1438631,10.9976572 L62.7469523,7.70822834 L57.7777218,7.70822834 L56.4641432,10.9976572 L54.7996922,10.9976572 L59.3698054,0.184208017 L61.0671507,0.184208017 L65.9223477,10.9976572 L65.9201547,10.9976572 Z M62.2666957,6.5722789 C61.2908318,4.23239849 60.7425937,2.90346922 60.6175954,2.5854911 C60.4925971,2.26751297 60.3544411,1.84427312 60.2031273,1.3135786 L60.1614612,1.3135786 C60.0101475,2.04163886 59.8083959,2.7148753 59.5540134,3.33548088 L58.2228912,6.57447185 L62.2666957,6.57447185 L62.2666957,6.5722789 Z" id="Shape"/>
            <polygon id="Path" points="81.1984554 10.9976572 79.5844423 10.9976572 73.3674217 2.50873776 73.3345274 2.50873776 73.3345274 10.9976572 71.8411267 10.9976572 71.8411267 0.184208017 73.448561 0.184208017 79.6655815 8.67312748 79.6984758 8.67312748 79.6984758 0.184208017 81.1984554 0.184208017 81.1984554 10.9976572"/>
            <polygon id="Path" points="96.9372761 1.46927823 93.0009262 1.46927823 93.0009262 10.9976572 91.4198074 10.9976572 91.4198074 1.46927823 87.5141588 1.46927823 87.5141588 0.184208017 96.9372761 0.184208017 96.9372761 1.46708528"/>
            <polygon id="Path" points="111.281379 1.46927823 104.82752 1.46927823 104.82752 4.81791683 110.419549 4.81791683 110.419549 6.10079409 104.82752 6.10079409 104.82752 10.9976572 103.25298 10.9976572 103.25298 0.184208017 111.281379 0.184208017 111.281379 1.46708528"/>
            <path d="M127.368879,6.44070174 C127.368879,6.99551875 127.335985,7.50866965 127.268003,7.98015446 C127.200022,8.45383222 127.022393,8.93847474 126.732923,9.43846793 C126.443453,9.93846112 125.971968,10.3529292 125.320661,10.684065 C124.667162,11.0152008 123.798752,11.1818652 122.711048,11.1818652 C121.623343,11.1818652 120.794407,11.0349374 120.145293,10.7388888 C119.496179,10.4428402 119.020309,10.0634594 118.717681,9.59636052 C118.415054,9.12926162 118.222074,8.64242614 118.136549,8.13585409 C118.053217,7.62928205 118.01155,7.06350028 118.01155,6.44070174 L118.01155,0.184208017 L119.58609,0.184208017 L119.58609,6.41657927 C119.58609,7.06569323 119.636528,7.62489614 119.739597,8.09418799 C119.842666,8.56347985 120.112399,8.98014084 120.55099,9.34417097 C120.98958,9.7082011 121.665009,9.89021616 122.581664,9.89021616 C123.498318,9.89021616 124.202256,9.74548129 124.667162,9.4538186 C125.132068,9.16434886 125.436888,8.77619625 125.577237,8.29155373 C125.717586,7.80691121 125.78776,7.18191972 125.78776,6.41438631 L125.78776,0.184208017 L127.368879,0.184208017 L127.368879,6.43850879 L127.368879,6.44070174 Z" id="Path"/>
            <polygon id="Path" points="143.993653 10.9976572 142.37964 10.9976572 136.162619 2.50873776 136.129725 2.50873776 136.129725 10.9976572 134.636324 10.9976572 134.636324 0.184208017 136.243758 0.184208017 142.460779 8.67312748 142.493673 8.67312748 142.493673 0.184208017 143.995846 0.184208017 143.995846 10.9976572"/>
            <polygon id="Path" points="161 10.9976572 158.921081 10.9976572 154.699647 5.53281937 152.734762 7.24990125 152.734762 10.9976572 151.160222 10.9976572 151.160222 0.184208017 152.734762 0.184208017 152.734762 5.54817004 158.651348 0.18640097 160.778512 0.18640097 155.793931 4.56792024 160.997807 10.9998502"/>
        </g>
    </g>
</symbol></svg>