<?xml version="1.0" encoding="utf-8"?>
<!-- Generator: Adobe Illustrator 26.3.1, SVG Export Plug-In . SVG Version: 6.00 Build 0)  -->
<svg version="1.1" id="Layer_1" xmlns="http://www.w3.org/2000/svg" xmlns:xlink="http://www.w3.org/1999/xlink" x="0px" y="0px"
	 viewBox="0 0 22 22" style="enable-background:new 0 0 22 22;" xml:space="preserve">
<style type="text/css">
	.st0{fill:none;stroke:#000000;}
</style>
<g id="ico_calendar">
	<g id="Group-2" transform="translate(1.000000, 1.000000)">
		<rect id="Rectangle" x="5.5" y="9.5" class="st0" width="2" height="2"/>
		<rect id="Rectangle-Copy-4" x="5.5" y="14.5" class="st0" width="2" height="2"/>
		<rect id="Rectangle-Copy-3" x="12.5" y="9.5" class="st0" width="2" height="2"/>
		<rect id="Rectangle-Copy-5" x="12.5" y="14.5" class="st0" width="2" height="2"/>
		<path id="Rectangle_00000178196977510496986250000006718146613875055244_" class="st0" d="M2.5,1.5h15c1.1,0,2,0.9,2,2v14
			c0,1.1-0.9,2-2,2h-15c-1.1,0-2-0.9-2-2v-14C0.5,2.4,1.4,1.5,2.5,1.5z"/>
		<rect id="Rectangle_00000152222512761517663780000004781329164697942706_" x="0.5" y="6.5" width="19" height="1"/>
		<rect id="Rectangle-Copy" x="4.5" y="0" width="1" height="3"/>
		<rect id="Rectangle-Copy-2" x="15.5" width="1" height="3"/>
	</g>
</g>
</svg>
