<?xml version="1.0" encoding="UTF-8"?>
<svg width="32px" height="32px" viewBox="0 0 32 32" version="1.1" xmlns="http://www.w3.org/2000/svg" xmlns:xlink="http://www.w3.org/1999/xlink">
    <title>ico_myshop_review</title>
    <g id="ico_myshop_review" stroke="none" stroke-width="1" fill="none" fill-rule="evenodd">
        <path d="M27,2 C27.8284271,2 28.5784271,2.33578644 29.1213203,2.87867966 C29.6642136,3.42157288 30,4.17157288 30,5 L30,20.2929286 C30,21.1213557 29.6642136,21.8713557 29.1213203,22.4142489 C28.5784271,22.9571421 27.8284271,23.2929286 27.0000848,23.2929286 L15.7338211,23.2919731 L7.46318787,29.1262265 L6.90952614,23.2911546 L5,23.2929286 C4.17157288,23.2929286 3.42157288,22.9571421 2.87867966,22.4142489 C2.33578644,21.8713557 2,21.1213557 2,20.2929286 L2,5 C2,4.17157288 2.33578644,3.42157288 2.87867966,2.87867966 C3.42157288,2.33578644 4.17157288,2 5,2 Z" id="Combined-Shape" stroke="#000000" stroke-width="2"></path>
    </g>
</svg>