<?xml version="1.0" encoding="UTF-8"?>
<svg width="42px" height="42px" viewBox="0 0 42 42" version="1.1" xmlns="http://www.w3.org/2000/svg" xmlns:xlink="http://www.w3.org/1999/xlink">
    <title>ico_login_kakao</title>
    <g id="ico_login_kakao" stroke="none" stroke-width="1" fill="none" fill-rule="evenodd">
        <g id="Group-2" transform="translate(1.000000, 1.000000)">
            <circle id="Oval-Copy" fill="#FDCC00" cx="20" cy="20" r="20"></circle>
            <path d="M20.009263,29.32806 C14.6274539,29.32806 10.26358,25.8824882 10.26358,21.6296349 C10.26358,18.8978951 12.0710296,16.4994129 14.7853959,15.130449 L13.8670959,11.7026481 C13.8319533,11.59742 13.8611056,11.486002 13.9373811,11.4101259 C13.9898953,11.3572124 14.0599808,11.32806 14.1360565,11.32806 C14.1947606,11.32806 14.2530654,11.3514218 14.3057793,11.392355 L18.2543296,14.0599975 C18.8277928,13.9781313 19.4128372,13.9314076 20.009263,13.9314076 C25.3910721,13.9314076 29.7553433,17.3767798 29.7553433,21.6296349 C29.7553433,25.8824882 25.3910721,29.32806 20.009263,29.32806" id="path696" fill="#3C1E1E" fill-rule="nonzero" transform="translate(20.009462, 20.328060) scale(-1, 1) rotate(-180.000000) translate(-20.009462, -20.328060) "></path>
        </g>
    </g>
</svg>