<?xml version="1.0" encoding="UTF-8"?>
<svg width="32px" height="32px" viewBox="0 0 32 32" version="1.1" xmlns="http://www.w3.org/2000/svg" xmlns:xlink="http://www.w3.org/1999/xlink">
    <title>ico_myshop_profile</title>
    <g id="ico_myshop_profile" stroke="none" stroke-width="1" fill="none" fill-rule="evenodd">
        <g id="Group" transform="translate(3.000000, 1.000000)" stroke="#000000" stroke-width="2">
            <circle id="Oval" cx="13" cy="5.5" r="4.5"></circle>
            <path d="M13,14 C16.3142524,14 19.3170527,15.3177523 21.4907913,17.4496882 C23.6574312,19.574662 25,22.509184 25,25.75 C25,26.0971155 24.7506255,26.3813538 24.4245337,26.6514648 C23.8680777,27.112393 23.042644,27.5015411 22.0259627,27.8339177 C19.7410199,28.5809182 16.5396415,29 13,29 C9.46035847,29 6.25898013,28.5809182 3.97403732,27.8339177 C2.95735603,27.5015411 2.13192232,27.112393 1.57546629,26.6514648 C1.24937445,26.3813538 1,26.0971155 1,25.75 C1,22.509184 2.34256879,19.574662 4.50920867,17.4496882 C6.68294733,15.3177523 9.68574757,14 13,14 Z" id="Path"></path>
        </g>
    </g>
</svg>