<?xml version="1.0" encoding="utf-8"?>
<!-- Generator: Adobe Illustrator 26.3.1, SVG Export Plug-In . SVG Version: 6.00 Build 0)  -->
<svg version="1.1" id="Layer_1" xmlns="http://www.w3.org/2000/svg" xmlns:xlink="http://www.w3.org/1999/xlink" x="0px" y="0px"
	 viewBox="0 0 17 17" style="enable-background:new 0 0 17 17;" xml:space="preserve">
<style type="text/css">
	.st0{fill:#FFFFFF;}
</style>
<g>
	<circle class="st0" cx="7.4" cy="7.7" r="5.8"/>
	<g id="ico_header_search">
		<g id="SEARCH_ICON_15x15" transform="translate(0.960000, 1.180000)">
			<g id="Group" transform="translate(-0.000000, -0.000000)">
				<path id="Shape" d="M6.5,1c3,0,5.5,2.5,5.5,5.5S9.5,12,6.5,12S1,9.5,1,6.5S3.5,1,6.5,1 M6.5,0C2.9,0,0,2.9,0,6.5S2.9,13,6.5,13
					S13,10.1,13,6.5S10.1,0,6.5,0L6.5,0z"/>
				<path id="Path" d="M14.8,14.7L14.8,14.7c-0.2,0.2-0.5,0.2-0.7,0l-3.6-3.6c-0.2-0.2-0.2-0.5,0-0.7l0,0c0.2-0.2,0.5-0.2,0.7,0
					l3.6,3.6C15,14.2,15,14.5,14.8,14.7L14.8,14.7z"/>
			</g>
		</g>
	</g>
</g>
</svg>
