<?xml version="1.0" encoding="UTF-8"?>
<svg width="22px" height="22px" viewBox="0 0 22 22" version="1.1" xmlns="http://www.w3.org/2000/svg" xmlns:xlink="http://www.w3.org/1999/xlink">
    <title>ico_menu_tag_mdpick</title>
    <g id="ico_menu_tag_mdpick" stroke="none" stroke-width="1" fill="none" fill-rule="evenodd">
        <g id="TAG_03_MDPICK_20x20" transform="translate(1.000000, 1.000000)" fill-rule="nonzero">
            <path d="M17.0631068,19.4299011 C16.6262136,19.4299011 15.9708738,19.3135544 15.4004854,18.7318208 L12.5606796,15.823153 C11.8932039,15.1367074 10.9830097,14.7643979 10,14.7643979 C9.01699029,14.7643979 8.10679612,15.1483421 7.43932039,15.823153 L4.59951456,18.7201862 C4.02912621,19.3019197 3.38592233,19.4182664 2.9368932,19.4182664 C2.34223301,19.4182664 1.75970874,19.1972077 1.32281553,18.8132635 C0.995145631,18.5223967 0.606796117,18.0104712 0.606796117,17.2076789 L0.606796117,2.79232112 C0.606796117,1.57068063 1.63834951,0.581733566 2.91262136,0.581733566 L17.0873786,0.581733566 C18.3616505,0.581733566 19.3932039,1.57068063 19.3932039,2.79232112 L19.3932039,17.2076789 C19.3932039,18.6038394 18.2038835,19.4299011 17.0631068,19.4299011 Z" id="Path" fill="#FC9738"></path>
            <path d="M17.0873786,1.16346713 C18.0218447,1.16346713 18.7864078,1.89645143 18.7864078,2.79232112 L18.7864078,17.2076789 C18.7864078,18.23153 17.9126214,18.8365329 17.0631068,18.8365329 C16.7354369,18.8365329 16.2742718,18.7434555 15.8495146,18.3129727 L13.0097087,15.4159395 C12.2330097,14.6247818 11.1407767,14.1710297 10,14.1710297 C8.87135922,14.1710297 7.76699029,14.6247818 6.99029126,15.4159395 L4.15048544,18.3129727 C3.72572816,18.7434555 3.25242718,18.8365329 2.9368932,18.8365329 C2.08737864,18.8365329 1.21359223,18.2198953 1.21359223,17.2076789 L1.21359223,2.79232112 C1.21359223,1.89645143 1.97815534,1.16346713 2.91262136,1.16346713 L17.0873786,1.16346713 M17.0873786,0 L2.91262136,0 C1.29854369,0 0,1.24490983 0,2.79232112 L0,17.2076789 C0,18.8947062 1.44417476,20 2.9368932,20 C3.67718447,20 4.44174757,19.7207679 5.03640777,19.115765 L7.87621359,16.2187318 C8.44660194,15.6369983 9.22330097,15.3344968 10,15.3344968 C10.776699,15.3344968 11.5533981,15.6253636 12.1237864,16.2187318 L14.9635922,19.115765 C15.5582524,19.7324026 16.3228155,20 17.0631068,20 C18.5558252,20 20,18.8947062 20,17.2076789 L20,2.79232112 C20,1.2565445 18.7014563,0 17.0873786,0 L17.0873786,0 Z" id="Shape" fill="#000000"></path>
        </g>
    </g>
</svg>