<?xml version="1.0" encoding="UTF-8"?>
<svg width="112px" height="90px" viewBox="0 0 112 90" version="1.1" xmlns="http://www.w3.org/2000/svg" xmlns:xlink="http://www.w3.org/1999/xlink">
    <title>ico_basket</title>
    <g id="ico_basket" stroke="none" stroke-width="1" fill="none" fill-rule="evenodd">
        <polyline id="Stroke-1" stroke="#000000" stroke-width="2" points="1 2 13.5722543 2 29.6647399 68.5 88 68.5"></polyline>
        <polyline id="Stroke-3" stroke="#000000" stroke-width="2" points="17.4495 18.9087 97.5005 18.9087 89.5005 59.4997 27.0495 59.4997"></polyline>
        <g id="Group" transform="translate(77.000000, 4.000000)">
            <path d="M34,17 C34,26.389 26.389,34 17,34 C7.611,34 0,26.389 0,17 C0,7.611 7.611,0 17,0 C26.389,0 34,7.611 34,17" id="Fill-4" fill="#000000"></path>
            <polygon id="Fill-10" fill="#FFFFFF" points="16 26 18 26 18 8 16 8"></polygon>
            <polygon id="Fill-12" fill="#FFFFFF" points="8 18 26 18 26 16 8 16"></polygon>
        </g>
        <path d="M39,73 C41.071,73 42.945995,73.8395085 44.3032432,75.1967568 C45.6604915,76.554005 46.5,78.429 46.5,80.5 C46.5,82.571 45.6604915,84.445995 44.3032432,85.8032432 C42.945995,87.1604915 41.071,88 39,88 C36.929,88 35.054005,87.1604915 33.6967568,85.8032432 C32.3395085,84.445995 31.5,82.571 31.5,80.5 C31.5,78.429 32.3395085,76.554005 33.6967568,75.1967568 C35.054005,73.8395085 36.929,73 39,73 Z" id="Stroke-8" stroke="#000000" stroke-width="2"></path>
        <path d="M78,73 C80.071,73 81.945995,73.8395085 83.3032432,75.1967568 C84.6604915,76.554005 85.5,78.429 85.5,80.5 C85.5,82.571 84.6604915,84.445995 83.3032432,85.8032432 C81.945995,87.1604915 80.071,88 78,88 C75.929,88 74.054005,87.1604915 72.6967568,85.8032432 C71.3395085,84.445995 70.5,82.571 70.5,80.5 C70.5,78.429 71.3395085,76.554005 72.6967568,75.1967568 C74.054005,73.8395085 75.929,73 78,73 Z" id="Stroke-8-Copy" stroke="#000000" stroke-width="2"></path>
    </g>
</svg>