<?xml version="1.0" encoding="utf-8"?>
<!-- Generator: Adobe Illustrator 26.3.1, SVG Export Plug-In . SVG Version: 6.00 Build 0)  -->
<svg version="1.1" id="Layer_1" xmlns="http://www.w3.org/2000/svg" xmlns:xlink="http://www.w3.org/1999/xlink" x="0px" y="0px"
	 viewBox="0 0 18 18" style="enable-background:new 0 0 18 18;" xml:space="preserve">
<style type="text/css">
	.st0{fill:none;stroke:#000000;}
	.st1{fill-rule:evenodd;clip-rule:evenodd;fill:#FFFFFF;stroke:#000000;}
</style>
<g id="ico_login_security">
	<g id="Group-2" transform="translate(3.000000, 1.000000)">
		<path id="Rectangle-Copy" class="st0" d="M5.5,0.5h1c1.7,0,3,1.3,3,3v2c0,1.7-1.3,3-3,3h-1c-1.7,0-3-1.3-3-3v-2
			C2.5,1.8,3.8,0.5,5.5,0.5z"/>
		<path id="Rectangle" class="st1" d="M11.5,6v6c0,1-0.4,1.8-1,2.5c-0.6,0.6-1.5,1-2.5,1H4c-1,0-1.8-0.4-2.5-1c-0.6-0.6-1-1.5-1-2.5
			V6H11.5z"/>
		<circle id="Oval" class="st0" cx="6" cy="10" r="1.5"/>
	</g>
</g>
</svg>
