<?xml version="1.0" encoding="UTF-8"?>
<svg width="22px" height="22px" viewBox="0 0 22 22" version="1.1" xmlns="http://www.w3.org/2000/svg" xmlns:xlink="http://www.w3.org/1999/xlink">
    <title>ico_menu_tag_celeb</title>
    <g id="ico_menu_tag_celeb" stroke="none" stroke-width="1" fill="none" fill-rule="evenodd">
        <g id="TAG_01_CELEB_20x20" transform="translate(1.000000, 3.000000)" fill-rule="nonzero">
            <path d="M9.99809761,15.5028535 C9.23459362,15.5028535 8.52198988,15.208624 7.99262711,14.6708941 L1.90495523,8.60367787 C0.937850162,7.63982245 0.428847496,6.31071655 0.510287922,4.96131896 C0.591728349,3.59162968 1.24325176,2.36398224 2.34269752,1.50158529 C3.14692173,0.872542803 4.12420685,0.547875713 5.17275234,0.547875713 C6.50633933,0.547875713 7.80938615,1.09575143 8.76631116,2.03931516 L9.99809761,3.26696259 L11.3724048,1.8972733 C12.2682495,1.00443881 13.4593157,0.507292327 14.7318224,0.507292327 C16.0043291,0.507292327 17.1953953,1.00443881 18.09124,1.8972733 C18.9870847,2.7901078 19.4859073,3.98731769 19.4859073,5.24540266 C19.4859073,6.51363348 18.9870847,7.70069753 18.09124,8.59353202 L11.9933881,14.6607483 C11.4742053,15.208624 10.7514216,15.5028535 9.99809761,15.5028535 Z" id="Path" fill="#FF9AD4"></path>
            <path d="M14.7318224,1.01458465 C15.8618083,1.01458465 16.9307139,1.45085606 17.7349381,2.25237793 C18.5391623,3.05389981 18.9769046,4.10906785 18.9769046,5.24540266 C18.9769046,6.37159163 18.5391623,7.43690552 17.7349381,8.23842739 L11.6472663,14.3056436 C11.209524,14.741915 10.6190809,14.9854153 9.99809761,14.9854153 C9.37711436,14.9854153 8.78667127,14.741915 8.34892898,14.3056436 L2.26125709,8.23842739 C1.40613261,7.38617628 0.948030215,6.19911224 1.02947064,4.9917565 C1.10073101,3.76410907 1.68099405,2.66835764 2.66845923,1.8972733 C3.38106296,1.33925174 4.24636749,1.04502219 5.1829324,1.04502219 C6.37399863,1.04502219 7.55488482,1.53202283 8.4100093,2.39441978 L9.28549388,3.26696259 L9.99809761,3.98731769 L10.7208814,3.26696259 L11.7388867,2.25237793 C12.5329309,1.4610019 13.6018365,1.01458465 14.7318224,1.01458465 M14.7318224,0 C13.3880554,0 12.0341083,0.507292327 11.0059229,1.53202283 L9.98791756,2.54660748 L9.12261303,1.68421053 C8.05370743,0.608750793 6.60813986,0.0405833862 5.17275234,0.0405833862 C4.06312653,0.0405833862 2.95350072,0.385542169 2.03729592,1.10589727 C-0.497537356,3.08433735 -0.670598262,6.7571338 1.53847331,8.9587825 L7.62614519,15.0259987 C8.2776686,15.6753329 9.13279308,16 9.99809761,16 C10.8532221,16 11.7083466,15.6753329 12.37005,15.0259987 L18.4577219,8.9587825 C20.5140927,6.9093215 20.5140927,3.59162968 18.4577219,1.54216867 L18.4577219,1.54216867 C17.4295365,0.517438174 16.0755894,0 14.7318224,0 L14.7318224,0 Z" id="Shape" fill="#000000"></path>
        </g>
    </g>
</svg>