<?xml version="1.0" encoding="UTF-8"?>
<svg width="24px" height="24px" viewBox="0 0 24 24" version="1.1" xmlns="http://www.w3.org/2000/svg" xmlns:xlink="http://www.w3.org/1999/xlink">
    <title>ico_star_blank</title>
    <g id="ico_star_blank" stroke="none" stroke-width="1" fill="none" fill-rule="evenodd">
        <path d="M11.7417247,19.4675679 L5.94387998,22.2325857 C5.64478125,22.3752272 5.28668004,22.2483936 5.14403853,21.9492949 C5.09411786,21.8446184 5.07560264,21.7277179 5.09073321,21.6127383 L5.9287889,15.2442228 C5.95240337,15.0647727 5.89374861,14.8842519 5.76916598,14.752954 L1.34784519,10.0933135 C1.11975847,9.85293233 1.12972506,9.47316409 1.37010621,9.24507736 C1.4542331,9.16525319 1.5596906,9.1115199 1.67371827,9.09037929 L7.98950989,7.9194381 C8.16747433,7.88644367 8.3210345,7.77487568 8.4074081,7.61581727 L11.4727263,1.97098323 C11.6308597,1.679778 11.9951206,1.57190195 12.2863258,1.73003533 C12.3882398,1.78537773 12.4719313,1.86906929 12.5272737,1.97098323 L15.5925919,7.61581727 C15.6789655,7.77487568 15.8325257,7.88644367 16.0104901,7.9194381 L22.3262817,9.09037929 C22.6521003,9.15078571 22.8672593,9.46388289 22.8068529,9.78970142 C22.7857123,9.90372908 22.731979,10.0091866 22.6521548,10.0933135 L18.230834,14.752954 C18.1062514,14.8842519 18.0475966,15.0647727 18.0712111,15.2442228 L18.9092668,21.6127383 C18.9525003,21.9412767 18.721215,22.2426575 18.3926766,22.285891 C18.277697,22.3010216 18.1607965,22.2825064 18.05612,22.2325857 L12.2582753,19.4675679 C12.0949054,19.389656 11.9050946,19.389656 11.7417247,19.4675679 Z" id="Star" stroke="#000000"></path>
    </g>
</svg>