<?xml version="1.0" encoding="UTF-8"?>
<svg width="21px" height="21px" viewBox="0 0 21 21" version="1.1" xmlns="http://www.w3.org/2000/svg" xmlns:xlink="http://www.w3.org/1999/xlink">
    <title>ico_boardset</title>
    <g id="ico_boardset" stroke="none" stroke-width="1" fill="none" fill-rule="evenodd">
        <g id="Group" transform="translate(10.000000, 10.931728) rotate(-315.000000) translate(-10.000000, -10.931728) translate(5.757359, -2.689592)" fill="#000000">
            <path d="M4.24264069,0 C6.45177969,-4.05812251e-16 8.24264069,1.790861 8.24264069,4 L8.24264069,21.5 C8.24264069,21.7761424 8.01878306,22 7.74264069,22 L0.742640687,22 C0.466498312,22 0.242640687,21.7761424 0.242640687,21.5 L0.242640687,4 C0.242640687,1.790861 2.03350169,4.05812251e-16 4.24264069,0 Z" id="Rectangle"></path>
            <path d="M1.75477274,20.5121321 L6.73050863,25.4878679 C6.84766592,25.6050252 6.84766592,25.7949747 6.73050863,25.912132 C6.67424772,25.9683929 6.59794154,26 6.51837659,26 L1.5426407,26 C1.37695527,26 1.24264069,25.8656854 1.24264069,25.7 L1.24264069,20.7242641 C1.24264069,20.5585787 1.37695527,20.4242641 1.5426407,20.4242641 C1.62220565,20.4242641 1.69851183,20.4558711 1.75477274,20.5121321 Z" id="Rectangle" transform="translate(4.242641, 23.000000) rotate(-45.000000) translate(-4.242641, -23.000000) "></path>
        </g>
    </g>
</svg>