<?xml version="1.0" encoding="UTF-8"?>
<svg width="67px" height="48px" viewBox="0 0 67 48" version="1.1" xmlns="http://www.w3.org/2000/svg" xmlns:xlink="http://www.w3.org/1999/xlink">
    <title>ico_camera</title>
    <g id="ico_camera" stroke="none" stroke-width="1" fill="none" fill-rule="evenodd">
        <g id="Icon_Camera" transform="translate(1.000000, 1.000000)" fill-rule="nonzero">
            <path d="M28,17 C32.96,17 37,21.04 37,26 C37,30.96 32.96,35 28,35 C23.04,35 19,30.96 19,26 C19,21.04 23.04,17 28,17 M28,15 C21.92,15 17,19.92 17,26 C17,32.08 21.92,37 28,37 C34.08,37 39,32.08 39,26 C39,19.92 34.08,15 28,15 L28,15 Z" id="Shape" fill="#000000"></path>
            <circle id="Oval" fill="#000000" cx="53" cy="12" r="12"></circle>
            <path d="M9,15 C9.55,15 10,15.45 10,16 C10,16.55 9.55,17 9,17 C8.45,17 8,16.55 8,16 C8,15.45 8.45,15 9,15 M9,13 C7.34,13 6,14.34 6,16 C6,17.66 7.34,19 9,19 C10.66,19 12,17.66 12,16 C12,14.34 10.66,13 9,13 L9,13 Z" id="Shape" fill="#000000"></path>
            <path d="M33.5,2 C35.83,2 37.8,3.82 37.98,6.15 L38.12,8 L53,8 C53.55,8 54,8.45 54,9 L54,43 C54,43.55 53.55,44 53,44 L3,44 C2.45,44 2,43.55 2,43 L2,9 C2,8.45 2.45,8 3,8 L16.88,8 L17.02,6.15 C17.2,3.82 19.17,2 21.5,2 L33.5,2 M33.5,0 L21.5,0 C18.08,0 15.28,2.64 15.03,6 L3,6 C1.34,6 0,7.34 0,9 L0,43 C0,44.66 1.34,46 3,46 L53,46 C54.66,46 56,44.66 56,43 L56,9 C56,7.34 54.66,6 53,6 L39.97,6 C39.71,2.64 36.92,0 33.5,0 L33.5,0 Z" id="Shape" fill="#000000"></path>
            <rect id="Rectangle" fill="#FFFFFF" x="52" y="5" width="2" height="14"></rect>
            <rect id="Rectangle" fill="#FFFFFF" transform="translate(53.000000, 12.000000) rotate(90.000000) translate(-53.000000, -12.000000) " x="52" y="5" width="2" height="14"></rect>
        </g>
    </g>
</svg>