<?xml version="1.0" encoding="UTF-8"?>
<svg width="22px" height="22px" viewBox="0 0 22 22" version="1.1" xmlns="http://www.w3.org/2000/svg" xmlns:xlink="http://www.w3.org/1999/xlink">
    <title>ico_menu_tag_picks</title>
    <g id="ico_menu_tag_picks" stroke="none" stroke-width="1" fill="none" fill-rule="evenodd">
        <g id="TAG_02_PICKS_20x20" transform="translate(1.000000, 1.000000)" fill-rule="nonzero">
            <path d="M10,19.4956253 C9.47517366,19.4956253 8.81656805,19.2279979 8.54900952,18.4765826 C8.18883458,17.4575399 7.21121688,16.7678847 6.13069205,16.7678847 C5.74993568,16.7678847 5.37947003,16.8502316 5.0295858,17.0149254 C4.81348083,17.117859 4.58708516,17.1693258 4.36068948,17.1693258 C3.84615385,17.1693258 3.35219964,16.891405 3.06405969,16.4384972 C2.78621045,15.9958827 2.75533831,15.4606279 2.98173399,14.9768399 C3.29045536,14.3180648 3.31103679,13.5666495 3.03318755,12.8975811 C2.75533831,12.2285126 2.20993054,11.7035512 1.52045279,11.4668039 C0.769230769,11.1991765 0.501672241,10.5404014 0.501672241,10.01544 C0.501672241,9.49047864 0.769230769,8.83170355 1.52045279,8.56407617 C2.19963983,8.31703551 2.75533831,7.80236747 3.03318755,7.13329902 C3.31103679,6.46423057 3.29045536,5.70252187 2.98173399,5.05404014 C2.75533831,4.54966547 2.78621045,4.01441071 3.0743504,3.57179619 C3.36249035,3.11888832 3.85644456,2.84096758 4.37098019,2.84096758 C4.59737587,2.84096758 4.82377155,2.89243438 5.03987651,2.99536799 C5.38976074,3.16006176 5.7602264,3.24240865 6.14098276,3.24240865 L6.14098276,3.24240865 C7.22150759,3.24240865 8.19912529,2.55275347 8.55930023,1.53371076 C8.81656805,0.782295419 9.47517366,0.514668039 10,0.514668039 C10.5248263,0.514668039 11.1731412,0.782295419 11.4509905,1.53371076 C11.8111654,2.55275347 12.7887831,3.24240865 13.8693079,3.24240865 C14.2500643,3.24240865 14.62053,3.16006176 14.9704142,2.99536799 C15.1865192,2.89243438 15.4129148,2.84096758 15.6393105,2.84096758 C16.1538462,2.84096758 16.6478004,3.11888832 16.9359403,3.57179619 C17.2137896,4.01441071 17.2446617,4.54966547 17.018266,5.03345342 C16.7095446,5.69222851 16.6889632,6.44364385 16.9668125,7.1127123 C17.2446617,7.78178075 17.7900695,8.30674215 18.4795472,8.54348945 C19.2307692,8.81111683 19.4983278,9.46989192 19.4983278,9.99485332 C19.4983278,10.5198147 19.2307692,11.1785898 18.4795472,11.4462172 C17.8003602,11.6932578 17.2446617,12.2079259 16.9668125,12.8769943 C16.6889632,13.5460628 16.7095446,14.3077715 17.018266,14.9562532 C17.2446617,15.4400412 17.2240803,15.9752959 16.9359403,16.4179104 C16.6478004,16.8708183 16.1538462,17.1487391 15.6393105,17.1487391 C15.4129148,17.1487391 15.1865192,17.0972723 14.9704142,16.9943387 C14.62053,16.8296449 14.2500643,16.747298 13.8693079,16.747298 C12.7887831,16.747298 11.8111654,17.4369532 11.4509905,18.4559959 C11.1731412,19.2279979 10.5248263,19.4956253 10,19.4956253 Z" id="Path" fill="#58E8ED"></path>
            <path d="M10,1.02933608 C10.1646514,1.02933608 10.7409313,1.08080288 10.9570363,1.70869789 C11.3892462,2.93360782 12.5623874,3.75707669 13.8590172,3.75707669 C14.3220993,3.75707669 14.7645999,3.65414308 15.1762285,3.45856922 C15.3202984,3.3865157 15.4746591,3.35563562 15.6290198,3.35563562 C15.9686133,3.35563562 16.2979161,3.54091611 16.4934397,3.84971693 C16.6066375,4.02470407 16.7507075,4.37467833 16.5448932,4.81729285 C16.1744276,5.60988163 16.1435554,6.51569738 16.483149,7.31857952 C16.8124518,8.12146166 17.4813481,8.74935666 18.2943144,9.03757077 C18.9220479,9.2640247 18.9735014,9.83015955 18.9735014,9.99485332 C18.9735014,10.1595471 18.9220479,10.7359753 18.2943144,10.9521359 C17.4710574,11.24035 16.8124518,11.868245 16.483149,12.6711271 C16.1538462,13.4740093 16.1744276,14.3901184 16.5448932,15.1724138 C16.7507075,15.6150283 16.6066375,15.9752959 16.4934397,16.1399897 C16.2979161,16.4487905 15.9686133,16.634071 15.6290198,16.634071 C15.4849498,16.634071 15.3305891,16.6031909 15.1762285,16.5311374 C14.7543092,16.3355636 14.3118086,16.23263 13.8590172,16.23263 C12.5623874,16.23263 11.3892462,17.0560988 10.9570363,18.2810087 C10.7306406,18.9089038 10.1646514,18.9603706 10,18.9603706 C9.8353486,18.9603706 9.25906869,18.9089038 9.04296373,18.2810087 C8.61075379,17.0560988 7.43761255,16.23263 6.14098276,16.23263 C5.67790069,16.23263 5.23540005,16.3355636 4.82377155,16.5311374 C4.67970157,16.6031909 4.52534088,16.634071 4.37098019,16.634071 C4.03138667,16.634071 3.70208387,16.4487905 3.50656033,16.1399897 C3.39336249,15.9650026 3.24929251,15.6150283 3.45510677,15.1724138 C3.82557242,14.4004117 3.85644456,13.494596 3.51685104,12.6917138 C3.18754824,11.8888317 2.51865192,11.2609367 1.70568562,10.9727226 C1.07795215,10.7462687 1.02649859,10.1698405 1.02649859,10.0051467 C1.02649859,9.84045291 1.07795215,9.2640247 1.70568562,9.04786413 C2.52894263,8.75965003 3.18754824,8.13175502 3.51685104,7.32887288 C3.85644456,6.51569738 3.82557242,5.60988163 3.45510677,4.81729285 C3.24929251,4.37467833 3.39336249,4.01441071 3.50656033,3.84971693 C3.70208387,3.54091611 4.03138667,3.35563562 4.37098019,3.35563562 C4.51505017,3.35563562 4.66941086,3.3865157 4.82377155,3.45856922 C5.23540005,3.65414308 5.67790069,3.75707669 6.14098276,3.75707669 C7.43761255,3.75707669 8.61075379,2.93360782 9.04296373,1.70869789 C9.25906869,1.08080288 9.8353486,1.02933608 10,1.02933608 M10,0 C9.19732441,0 8.39464883,0.452907874 8.06534603,1.35872362 L8.06534603,1.35872362 C7.76691536,2.21307257 6.97453049,2.72774061 6.14098276,2.72774061 C5.8425521,2.72774061 5.54412143,2.66598044 5.26627219,2.53216675 L5.26627219,2.53216675 C4.95755081,2.3880597 4.65912014,2.32629954 4.37098019,2.32629954 C2.97144327,2.32629954 1.83946488,3.81883685 2.52894263,5.25990736 L2.52894263,5.25990736 C3.05376897,6.36129696 2.5083612,7.66855378 1.3660921,8.06999485 C-0.455364034,8.71847658 -0.455364034,11.2918168 1.3660921,11.9300051 C2.5083612,12.3417396 3.05376897,13.6489964 2.52894263,14.7400926 L2.52894263,14.7400926 C1.83946488,16.1811631 2.97144327,17.6737005 4.37098019,17.6737005 C4.65912014,17.6737005 4.95755081,17.6119403 5.25598148,17.4678332 L5.25598148,17.4678332 C5.54412143,17.3340196 5.8425521,17.2722594 6.13069205,17.2722594 C6.96423977,17.2722594 7.76691536,17.7869274 8.06534603,18.6412764 L8.06534603,18.6412764 C8.38435812,19.5470921 9.19732441,20 10,20 C10.8026756,20 11.6053512,19.5470921 11.934654,18.6412764 L11.934654,18.6412764 C12.2330846,17.7972208 13.0254695,17.2722594 13.8693079,17.2722594 C14.1677386,17.2722594 14.4661693,17.3340196 14.7440185,17.4678332 L14.7440185,17.4678332 C15.0424492,17.6119403 15.3408799,17.6737005 15.6290198,17.6737005 C17.0285567,17.6737005 18.1605351,16.1811631 17.4710574,14.7400926 L17.4710574,14.7400926 C16.946231,13.638703 17.4916388,12.3314462 18.6339079,11.9300051 L18.6339079,11.9300051 C20.455364,11.2815234 20.455364,8.70818322 18.6339079,8.06999485 L18.6339079,8.06999485 C17.4916388,7.65826042 16.946231,6.3510036 17.4710574,5.25990736 L17.4710574,5.25990736 C18.1605351,3.81883685 17.0285567,2.32629954 15.6290198,2.32629954 C15.3408799,2.32629954 15.0424492,2.3880597 14.7440185,2.53216675 C14.4558786,2.66598044 14.1574479,2.72774061 13.8693079,2.72774061 C13.0357602,2.72774061 12.2330846,2.21307257 11.934654,1.35872362 L11.934654,1.35872362 C11.6053512,0.452907874 10.8026756,0 10,0 L10,0 Z" id="Shape" fill="#000000"></path>
        </g>
    </g>
</svg>