<?xml version="1.0" encoding="UTF-8"?>
<svg width="17px" height="17px" viewBox="0 0 17 17" version="1.1" xmlns="http://www.w3.org/2000/svg" xmlns:xlink="http://www.w3.org/1999/xlink">
    <title>ico_header_search</title>
    <g id="ico_header_search" stroke="none" stroke-width="1" fill="none" fill-rule="evenodd">
        <g id="SEARCH_ICON_15x15" transform="translate(0.960000, 1.180000)" fill="#000000" fill-rule="nonzero">
            <g id="Group" transform="translate(-0.000000, -0.000000)">
                <path d="M6.5,1 C9.53,1 12,3.47 12,6.5 C12,9.53 9.53,12 6.5,12 C3.47,12 1,9.53 1,6.5 C1,3.47 3.46,1 6.5,1 M6.5,0 C2.91,0 0,2.91 0,6.5 C0,10.09 2.91,13 6.5,13 C10.09,13 13,10.09 13,6.5 C13,2.91 10.09,0 6.5,0 L6.5,0 Z" id="Shape"></path>
                <path d="M14.78,14.74 L14.78,14.74 C14.59,14.93 14.27,14.93 14.07,14.74 L10.49,11.16 C10.3,10.97 10.3,10.65 10.49,10.45 L10.49,10.45 C10.68,10.26 11,10.26 11.2,10.45 L14.78,14.03 C14.97,14.22 14.97,14.54 14.78,14.74 L14.78,14.74 Z" id="Path"></path>
            </g>
        </g>
    </g>
</svg>