<?xml version="1.0" encoding="UTF-8"?>
<svg width="32px" height="32px" viewBox="0 0 32 32" version="1.1" xmlns="http://www.w3.org/2000/svg" xmlns:xlink="http://www.w3.org/1999/xlink">
    <title>ico_myshop_board</title>
    <g id="ico_myshop_board" stroke="none" stroke-width="1" fill="none" fill-rule="evenodd">
        <g id="Group" transform="translate(2.000000, 0.393398)" stroke="#000000" stroke-width="2">
            <path d="M14,1.60660172 C15.8666667,1.60660172 18.6666667,1.60660172 22.4,1.60660172 C25.4927946,1.60660172 28,4.11380712 28,7.20660172 L28,24.0066017 C28,27.0993963 25.4927946,29.6066017 22.4,29.6066017 L5.6,29.6066017 C2.5072054,29.6066017 0,27.0993963 0,24.0066017 C0,20.2732684 0,17.4732684 0,15.6066017" id="Path" stroke-linecap="round" transform="translate(14.000000, 15.606602) scale(-1, 1) translate(-14.000000, -15.606602) "></path>
            <path d="M22,0.606601718 L22,14.5875698 C21.9313161,16.358743 21.5161754,17.9487025 20.8635999,19.0907095 C20.5759211,19.5941475 20.2458528,20.0061075 19.8726087,20.2820608 C19.6023715,20.4818572 19.3111209,20.6066017 19,20.6066017 C18.6887385,20.6066017 18.3973667,20.4817447 18.1271108,20.2817708 C17.7539776,20.0056736 17.4241624,19.5935418 17.1369849,19.0899366 C16.4859493,17.9482559 16.0732691,16.3591712 16.008767,14.589261 L16.0005853,0.606601718 L22,0.606601718 Z" id="Combined-Shape" transform="translate(19.000000, 10.606602) rotate(-315.000000) translate(-19.000000, -10.606602) "></path>
        </g>
    </g>
</svg>