<?xml version="1.0" encoding="UTF-8"?>
<svg width="22px" height="19px" viewBox="0 0 22 19" version="1.1" xmlns="http://www.w3.org/2000/svg" xmlns:xlink="http://www.w3.org/1999/xlink">
    <title>ico_like</title>
    <g id="ico_like" stroke="none" stroke-width="1" fill="none" fill-rule="evenodd">
        <path d="M14.599656,1.51020436 C15.6241875,1.44980056 16.6665436,1.65853067 17.5863377,2.09611515 C18.4565757,2.51012378 19.2179977,3.12957263 19.7444971,3.92476111 C20.2189001,4.64126661 20.5004744,5.50045153 20.4999994,6.47570019 C20.4985841,9.38125392 18.0605749,13.199889 11.338875,17.4067161 C3.93894999,13.2002703 1.50121353,9.38170696 1.50000044,6.47611178 C1.49959326,5.50083301 1.78123206,4.64160735 2.25569074,3.92505842 C2.78224864,3.1298269 3.5437169,2.51032851 4.41399252,2.09627805 C5.3337981,1.65866275 6.37614875,1.44989643 7.40066886,1.51027249 C8.35551492,1.56654258 9.29559663,1.85714602 10.1028597,2.4198432 C10.3701815,2.60598868 10.6849991,2.69982715 11.0001244,2.69982715 C11.3152496,2.69982715 11.6300672,2.60598868 11.8975848,2.41970684 C12.7046748,1.85713018 13.6447858,1.56650109 14.599656,1.51020436 Z" id="Stroke-1-Copy" stroke="#000000"></path>
    </g>
</svg>