<?xml version="1.0" encoding="UTF-8"?>
<svg width="22px" height="22px" viewBox="0 0 22 22" version="1.1" xmlns="http://www.w3.org/2000/svg" xmlns:xlink="http://www.w3.org/1999/xlink">
    <title>ico_menu_tag_funkplay</title>
    <g id="ico_menu_tag_funkplay" stroke="none" stroke-width="1" fill="none" fill-rule="evenodd">
        <g id="TAG_04_FUNKY_20x20" transform="translate(1.000000, 1.000000)" fill-rule="nonzero">
            <path d="M15.2423901,19.4356659 C14.1262683,19.4356659 13.0777903,19.006772 12.2998873,18.2167043 L12.1984216,18.1151242 C11.5219842,17.51693 10.7440812,17.2009029 9.95490417,17.2009029 C9.1319053,17.2009029 8.3427283,17.5507901 7.68883878,18.2054176 C6.88838782,19.006772 5.85118377,19.4356659 4.73506201,19.4356659 C3.61894025,19.4356659 2.57046223,19.006772 1.79255919,18.2167043 C0.169109357,16.5914221 0.169109357,13.9390519 1.79255919,12.3137698 C3.11161218,10.993228 3.14543405,9.22121896 1.8940248,7.78781038 L1.78128523,7.68623025 C0.1578354,6.06094808 0.1578354,3.41986456 1.78128523,1.78329571 L1.8151071,1.74943567 L1.84892897,1.69300226 C2.57046223,0.993227991 3.61894025,0.553047404 4.72378805,0.553047404 L4.72378805,0.553047404 C5.83990981,0.553047404 6.88838782,0.981941309 7.66629087,1.77200903 L7.76775648,1.87358916 C8.44419391,2.4717833 9.22209696,2.78781038 10.011274,2.78781038 C10.8342728,2.78781038 11.6234498,2.43792325 12.2773393,1.78329571 C13.0665163,0.993227991 14.1149944,0.564334086 15.2198422,0.564334086 C16.32469,0.564334086 17.3844419,0.993227991 18.162345,1.78329571 C19.7857948,3.40857788 19.7857948,6.06094808 18.162345,7.68623025 C16.854566,8.99548533 16.8207441,10.7674944 18.0721533,12.2009029 L18.1736189,12.3024831 C19.7857948,13.9164786 19.7970688,16.5124153 18.2299887,18.1489842 L18.1848929,18.1715576 L18.162345,18.2054176 L18.1285231,18.227991 L18.1059752,18.2731377 C17.3506201,19.0293454 16.32469,19.4356659 15.2423901,19.4356659 Z" id="Path" fill="#B7ADF0"></path>
            <path d="M4.73506201,1.12866817 C5.70462232,1.12866817 6.6065389,1.50112867 7.28297632,2.17832957 L7.36189402,2.25733634 L7.38444194,2.27990971 L7.41826381,2.30248307 C8.20744081,2.99097065 9.10935738,3.35214447 10.0338219,3.35214447 C11.0146561,3.35214447 11.9391206,2.94582393 12.6944758,2.17832957 C13.3709132,1.50112867 14.2841037,1.11738149 15.2423901,1.11738149 C16.2006764,1.11738149 17.113867,1.48984199 17.7903044,2.17832957 C18.4667418,2.85553047 18.8500564,3.76975169 18.8500564,4.72911964 C18.8500564,5.68848758 18.4780158,6.6027088 17.7903044,7.27990971 C16.2795941,8.79232506 16.2344983,10.9142212 17.6662909,12.5620767 L17.6888388,12.5959368 L17.7113867,12.6185102 L17.7903044,12.6975169 C18.4667418,13.3747178 18.8500564,14.2889391 18.8500564,15.248307 C18.8500564,16.1851016 18.4892897,17.0767494 17.8466742,17.7539503 L17.7903044,17.8103837 L17.7452086,17.8555305 C17.0687711,18.510158 16.1781285,18.8713318 15.2423901,18.8713318 C14.2841037,18.8713318 13.3709132,18.4988713 12.6944758,17.8103837 L12.6155581,17.731377 L12.5930101,17.7088036 L12.5591883,17.6862302 C11.7700113,16.9977427 10.8680947,16.6365688 9.94363021,16.6365688 C8.96279594,16.6365688 8.03833145,17.0428894 7.27170237,17.8103837 C6.59526494,18.4875847 5.68207441,18.8713318 4.72378805,18.8713318 C3.76550169,18.8713318 2.85231116,18.4988713 2.17587373,17.8103837 C0.766629087,16.3995485 0.766629087,14.1196388 2.18714769,12.6975169 C3.69785795,11.1851016 3.74295378,9.06320542 2.31116122,7.41534989 L2.2886133,7.39277652 L2.25479143,7.37020316 L2.17587373,7.29119639 C0.789177001,5.90293454 0.777903044,3.64559819 2.14205186,2.23476298 L2.18714769,2.18961625 L2.24351747,2.13318284 C2.90868095,1.48984199 3.79932356,1.12866817 4.73506201,1.12866817 M4.73506201,0 C3.52874859,0 2.31116122,0.46275395 1.38669673,1.38826185 C1.38669673,1.38826185 1.38669673,1.38826185 1.38669673,1.38826185 C1.38669673,1.38826185 1.38669673,1.38826185 1.38669673,1.38826185 C-0.462232244,3.23927765 -0.462232244,6.24153499 1.38669673,8.08126411 L1.46561443,8.16027088 C2.49154453,9.33408578 2.5253664,10.778781 1.39797069,11.9074492 L1.38669673,11.9187359 C-0.462232244,13.7697517 -0.462232244,16.772009 1.38669673,18.6117381 L1.38669673,18.6117381 C2.31116122,19.537246 3.51747463,20 4.73506201,20 C5.94137542,20 7.1589628,19.537246 8.08342728,18.6117381 L8.09470124,18.6004515 C8.6583991,18.0361174 9.31228861,17.765237 9.96617813,17.765237 C10.6087937,17.765237 11.2626832,18.0248307 11.837655,18.5327314 L11.9165727,18.6117381 C12.8410372,19.537246 14.0473506,20 15.264938,20 C16.4712514,20 17.6888388,19.537246 18.6133033,18.6117381 C18.6133033,18.6117381 18.6133033,18.6117381 18.6133033,18.6117381 C18.6133033,18.6117381 18.6133033,18.6117381 18.6133033,18.6117381 C20.4622322,16.7607223 20.4622322,13.758465 18.6133033,11.9187359 L18.5343856,11.8397291 C17.5084555,10.6659142 17.4746336,9.22121896 18.6020293,8.09255079 C20.4509583,6.24153499 20.4509583,3.23927765 18.6020293,1.39954853 L18.6020293,1.39954853 C17.6775648,0.474040632 16.4712514,0.0112866817 15.253664,0.0112866817 C14.0360767,0.0112866817 12.8297632,0.474040632 11.9052988,1.39954853 C11.3416009,1.96388262 10.6877114,2.23476298 10.0338219,2.23476298 C9.39120631,2.23476298 8.7373168,1.9751693 8.16234498,1.46726862 L8.08342728,1.38826185 C7.1589628,0.46275395 5.95264938,0 4.73506201,0 L4.73506201,0 Z" id="Shape" fill="#000000"></path>
        </g>
    </g>
</svg>