<?xml version="1.0" encoding="UTF-8"?>
<svg width="32px" height="32px" viewBox="0 0 32 32" version="1.1" xmlns="http://www.w3.org/2000/svg" xmlns:xlink="http://www.w3.org/1999/xlink">
    <title>icon_myshop_cart</title>
    <g id="icon_myshop_cart" stroke="none" stroke-width="1" fill="none" fill-rule="evenodd">
        <g id="Group-4" transform="translate(2.000000, 2.000000)" stroke="#000000" stroke-width="2">
            <path d="M21.2552012,7 C22.5936798,7 23.8134301,7.52709579 24.7130957,8.38849542 C25.6127613,9.24989506 26.1923422,10.4455985 26.250482,11.7828139 L26.7287428,22.7828139 C26.7887171,24.1622226 26.2838978,25.4353522 25.4192327,26.3786231 C24.5588671,27.3172038 23.3422255,27.9291981 21.9712135,27.9943451 L6.26653797,28 C4.88582609,28 3.63582609,27.4403559 2.73100406,26.5355339 C1.83066628,25.6351961 1.27209358,24.3930933 1.26657918,23.0205186 L1.74951804,11.7828139 C1.80765784,10.4455985 2.38723871,9.24989506 3.28690429,8.38849542 C4.18656987,7.52709579 5.40632017,7 6.74479883,7 Z" id="Rectangle"></path>
            <path d="M7,14 L7,14 L7,8 C7,3.581722 10.1340068,0 14,0 C17.8659932,0 21,3.581722 21,8 L21,14 L21,14" id="Path"></path>
        </g>
    </g>
</svg>