<?xml version="1.0" encoding="UTF-8"?>
<svg width="32px" height="32px" viewBox="0 0 32 32" version="1.1" xmlns="http://www.w3.org/2000/svg" xmlns:xlink="http://www.w3.org/1999/xlink">
    <title>icon_myshop_mileage</title>
    <g id="icon_myshop_mileage" stroke="none" stroke-width="1" fill="none" fill-rule="evenodd">
        <path d="M16,2.47213595 C16.2062708,2.47213595 16.4125415,2.53579696 16.5877853,2.66311896 L29.4535485,12.0106431 C29.6287922,12.1379651 29.7530786,12.314468 29.8168198,12.5106431 C29.8805609,12.7068183 29.8837569,12.9226658 29.8168198,13.1286771 L24.9025355,28.2532889 C24.8355984,28.4593002 24.7061408,28.632046 24.5392642,28.7532889 C24.3723877,28.8745318 24.1680921,28.9442719 23.951479,28.9442719 L8.04852102,28.9442719 C7.83190789,28.9442719 7.62761233,28.8745318 7.46073577,28.7532889 C7.29385921,28.632046 7.16440164,28.4593002 7.0974645,28.2532889 L2.18318023,13.1286771 C2.11624309,12.9226658 2.11943906,12.7068183 2.18318023,12.5106431 C2.24692141,12.314468 2.37120779,12.1379651 2.5464515,12.0106431 L15.4122147,2.66311896 C15.5874585,2.53579696 15.7937292,2.47213595 16,2.47213595 Z" id="Polygon" stroke="#000000" stroke-width="2"></path>
        <g id="M" transform="translate(11.092000, 11.880000)" fill="#000000" fill-rule="nonzero" stroke="#000000">
            <polygon id="Path" points="0 9.12 1.44 9.12 1.44 3.036 4.08 9.12 5.652 9.12 8.292 3.036 8.292 9.12 9.744 9.12 9.744 0 8.136 0 4.86 7.464 1.596 0 0 0"></polygon>
        </g>
    </g>
</svg>