<?xml version="1.0" encoding="utf-8"?>
<!-- Generator: Adobe Illustrator 26.3.1, SVG Export Plug-In . SVG Version: 6.00 Build 0)  -->
<svg version="1.1" id="Layer_1" xmlns="http://www.w3.org/2000/svg" xmlns:xlink="http://www.w3.org/1999/xlink" x="0px" y="0px"
	 viewBox="0 0 32 32" style="enable-background:new 0 0 32 32;" xml:space="preserve">
<style type="text/css">
	.st0{fill:none;stroke:#000000;stroke-width:2;}
</style>
<g id="icon_myshop_mileage">
	<path id="Polygon" class="st0" d="M16,2.5c0.2,0,0.4,0.1,0.6,0.2L29.5,12c0.2,0.1,0.3,0.3,0.4,0.5c0.1,0.2,0.1,0.4,0,0.6l-4.9,15.1
		c-0.1,0.2-0.2,0.4-0.4,0.5c-0.2,0.1-0.4,0.2-0.6,0.2H8c-0.2,0-0.4-0.1-0.6-0.2c-0.2-0.1-0.3-0.3-0.4-0.5L2.2,13.1
		c-0.1-0.2-0.1-0.4,0-0.6c0.1-0.2,0.2-0.4,0.4-0.5l12.9-9.3C15.6,2.5,15.8,2.5,16,2.5z"/>
	<g id="M" transform="translate(11.092000, 11.880000)">
		<polygon id="Path" points="0,9.1 1.4,9.1 1.4,3 4.1,9.1 5.7,9.1 8.3,3 8.3,9.1 9.7,9.1 9.7,0 8.1,0 4.9,7.5 1.6,0 0,0 		"/>
	</g>
</g>
</svg>
