<?xml version="1.0" encoding="UTF-8"?><svg xmlns="http://www.w3.org/2000/svg" viewBox="0 0 162 14"><g id="a"/><g id="b"><g><path d="M2.5,13.46H.61V.54h1.89V13.46Z"/><path d="M19.53,13.46h-1.93L10.17,3.32h-.04V13.46h-1.78V.54h1.92l7.43,10.15h.04V.54h1.79V13.46Z"/><path d="M30.32,13.68c-2,0-3.49-.41-4.49-1.22-.99-.81-1.52-1.86-1.58-3.16l1.78-.14c.08,1.03,.52,1.79,1.32,2.26,.8,.47,1.76,.71,2.88,.71,1.05,0,1.91-.2,2.56-.59,.65-.39,.97-.93,.97-1.6s-.34-1.22-1.02-1.54c-.68-.32-1.82-.64-3.42-.96-1.6-.31-2.75-.76-3.46-1.33-.71-.57-1.06-1.31-1.06-2.22,0-1.03,.45-1.89,1.34-2.57,.89-.67,2.11-1.01,3.65-1.01s2.85,.34,3.81,1.01c.96,.67,1.47,1.63,1.53,2.87l-1.8,.13c-.08-.82-.4-1.44-.98-1.86-.58-.41-1.4-.62-2.47-.62-.97,0-1.76,.16-2.37,.49-.61,.33-.91,.81-.91,1.44,0,.56,.23,.97,.7,1.25,.47,.27,1.37,.54,2.69,.82,1.18,.24,2.14,.48,2.88,.72,.74,.25,1.38,.63,1.91,1.15,.53,.52,.8,1.22,.8,2.09,0,1.11-.49,2.03-1.46,2.77-.97,.73-2.24,1.1-3.81,1.1"/><path d="M50.34,2.07h-4.7V13.46h-1.89V2.07h-4.67V.54h11.26v1.53Z"/><path d="M66.84,13.46h-2.12l-1.67-3.93h-5.94l-1.57,3.93h-1.99L59.01,.54h2.03l5.8,12.92Zm-4.36-5.29c-1.17-2.8-1.82-4.39-1.97-4.77-.15-.38-.31-.89-.49-1.52h-.05c-.18,.87-.42,1.68-.73,2.42l-1.59,3.87h4.83Z"/><path d="M81.78,13.46h-1.93l-7.43-10.15h-.04V13.46h-1.79V.54h1.92l7.43,10.15h.04V.54h1.79V13.46Z"/><path d="M97.3,2.07h-4.7V13.46h-1.89V2.07h-4.67V.54h11.26v1.53Z"/><path d="M111.25,2.07h-7.71V6.08h6.68v1.53h-6.68v5.85h-1.88V.54h9.59v1.53Z"/><path d="M122.07,13.68c-1.27,0-2.29-.18-3.07-.53-.78-.35-1.35-.81-1.71-1.37-.36-.56-.59-1.14-.69-1.74-.1-.61-.15-1.28-.15-2.03V.54h1.88V7.99c0,.78,.06,1.44,.18,2.01,.12,.56,.45,1.06,.97,1.49,.52,.44,1.33,.65,2.43,.65s1.94-.17,2.49-.52c.56-.35,.92-.81,1.09-1.39,.17-.58,.25-1.33,.25-2.24V.54h1.89v7.48c0,.66-.04,1.28-.12,1.84-.08,.57-.29,1.14-.64,1.74-.35,.6-.91,1.09-1.69,1.49-.78,.4-1.82,.6-3.12,.6"/><path d="M144.32,13.46h-1.93l-7.43-10.15h-.04V13.46h-1.79V.54h1.92l7.43,10.15h.04V.54h1.79V13.46Z"/><path d="M161.39,13.46h-2.48l-5.04-6.53-2.35,2.05v4.48h-1.88V.54h1.88V6.95l7.07-6.41h2.54l-5.96,5.24,6.22,7.69Z"/></g></g></svg>