<?xml version="1.0" encoding="UTF-8"?><svg id="Layer_1" xmlns="http://www.w3.org/2000/svg" viewBox="0 0 724 340"><defs><style>.cls-1{fill:#fff;}</style></defs><g><g><path class="cls-1" d="M2.5,337.5V175.02H202.5c39.25,0,58.33,17.23,58.33,52.67v2.2c0,35.24-19.62,53.11-58.33,53.11H41v54.49H2.5Zm38.5-90.18H201.82c12.48,0,18.81-5.93,18.81-17.64v-.66c0-11.85-6.33-17.86-18.81-17.86H41v36.16Z"/><path d="M202.5,175.52c38.91,0,57.83,17.07,57.83,52.17v2.2c0,34.91-19.46,52.61-57.83,52.61H40.5v54.49H3V175.51H202.5M40.5,247.81H201.82c12.81,0,19.31-6.1,19.31-18.14v-.66c0-12.18-6.5-18.36-19.31-18.36H40.5v37.16m162-73.29H2v163.48H41.5v-54.49H202.5c45.1,0,58.83-24.39,58.83-53.61v-2.2c0-29.89-13.39-53.18-58.83-53.18h0ZM41.5,246.81v-35.16H201.82c12.72,0,18.31,6.15,18.31,17.36v.66c0,11.21-5.93,17.14-18.31,17.14H41.5Z"/></g><g><polygon class="cls-1" points="272.54 337.5 272.54 175.02 314.62 175.02 314.62 297.07 398.89 297.07 398.89 337.5 272.54 337.5"/><path d="M314.12,175.52v122.05h84.27v39.43h-125.35V175.52h41.08m1-1h-43.08v163.48h127.35v-41.43h-84.27v-122.05h0Z"/></g><g><path class="cls-1" d="M550.26,337.5l-11.87-29.88h-77.15l-11.36,29.88h-39.1l63.36-162.48h50.52l67.06,162.48h-41.46Zm-75.32-65.8h49.27l-25.16-63.18-24.11,63.18Z"/><path d="M524.33,175.52l66.65,161.48h-40.38l-11.62-29.25-.25-.63h-77.83l-.25,.64-11.11,29.24h-38.03l62.97-161.48h49.85m-50.12,96.68h50.73l-.55-1.37-24.41-61.3-.95-2.38-.91,2.4-23.4,61.3-.51,1.35m50.79-97.68h-51.2l-63.75,163.48h40.18l11.36-29.88h76.46l11.87,29.88h42.55l-67.47-163.48h0Zm-49.34,96.68l23.4-61.3h0l24.41,61.3h-47.81Z"/></g><g><polygon class="cls-1" points="617.39 337.5 617.39 274.57 550.35 175.02 598.14 175.02 637.57 235.64 677.68 175.02 721.08 175.02 655.89 274.57 655.89 337.5 617.39 337.5"/><path d="M720.15,175.52l-64.6,98.65-.16,.25v62.58h-37.5v-62.59l-.17-.25-66.43-98.64h46.57l38.87,59.75,.83,1.28,.84-1.27,39.54-59.76h42.21m1.85-1h-44.59l-39.84,60.21h0l-39.16-60.21h-49l67.48,100.2v63.28h39.5v-63.28l65.61-100.2h0Z"/></g></g><g><g><polygon class="cls-1" points="2.5 164.98 2.5 2.5 260.83 2.5 260.83 38.64 40.83 38.64 40.83 63.81 260.83 63.81 260.83 100.16 40.83 100.16 40.83 164.98 2.5 164.98"/><path d="M260.33,3V38.13H40.33v26.17h220v35.35H40.33v64.82H3V2.99H260.33m1-.99H2V165.48H41.33V100.66h220V63.31H41.33v-24.17h220V2h0Z"/></g><g><polygon class="cls-1" points="546.5 164.98 433.2 55.98 433.2 164.98 392.34 164.98 392.34 2.5 435.72 2.5 546.79 105.99 546.79 2.5 587.65 2.5 587.65 164.98 546.5 164.98"/><path d="M587.15,3V164.48h-40.45l-112.31-108.05-1.69-1.63v109.68h-39.86V3h42.69l110.09,102.56,1.68,1.57V3h39.85m1-1h-41.86V104.83h0L435.92,2h-44.08V165.48h41.86V57.16h0l112.6,108.33h41.86V2h0Z"/></g><g><polygon class="cls-1" points="677.44 164.98 637.48 92.24 637.48 164.98 598.98 164.98 598.98 2.5 637.48 2.5 637.48 78.07 675.42 2.5 721.18 2.5 679.64 82.54 721.19 164.98 677.44 164.98"/><path d="M720.35,3l-41.04,79.08-.24,.45,.23,.46,41.07,81.49h-42.64l-38.87-70.77-1.88-3.42v74.19h-37.5V3h37.5V80.17l1.89-3.77L675.72,3h44.63m1.65-1h-46.89l-37.12,73.95h0V2h-39.5V165.48h39.5V94.19h0l39.16,71.29h44.85l-41.8-82.94h0L722,2h0Z"/></g><g><path class="cls-1" d="M326.61,167.64c-29.4,0-53.31-23.92-53.31-53.31V2.5h38.08V115.47c0,7.65,5.54,14.26,12.9,15.37,.77,.12,1.56,.18,2.33,.18,8.4,0,15.23-6.83,15.23-15.23V2.5h38.09V114.33c0,29.4-23.93,53.31-53.32,53.31Z"/><path d="M379.42,3V114.33c0,29.12-23.69,52.81-52.81,52.81s-52.81-23.69-52.81-52.81V3h37.09V115.47c0,7.9,5.73,14.72,13.32,15.86,.8,.12,1.61,.18,2.4,.18,8.67,0,15.73-7.05,15.73-15.73V2.99h37.08m1-.99h-39.08V115.79c0,8.1-6.63,14.73-14.73,14.73-.74,0-1.49-.06-2.25-.17-7.24-1.09-12.47-7.55-12.47-14.87V2h-39.09V114.33c0,29.6,24.21,53.81,53.81,53.81h0c29.6,0,53.81-24.21,53.81-53.81V2h0Z"/></g></g></svg>