<?xml version="1.0" encoding="UTF-8"?><svg id="Layer_1" xmlns="http://www.w3.org/2000/svg" viewBox="0 0 1864 204"><defs><style>.cls-1{fill:#8cff27;}</style></defs><g><polygon class="cls-1" points="2.5 199.83 2.5 .92 318.62 .92 318.62 45.33 49.6 45.33 49.6 75.89 318.62 75.89 318.62 120.56 49.6 120.56 49.6 199.83 2.5 199.83"/><path d="M318.12,1.42V44.83H49.1v31.56H318.12v43.68H49.1v79.27H3V1.42H318.12m1-1H2V200.33H50.1V121.06H319.12v-45.68H50.1v-29.56H319.12V.42h0Z"/></g><g><polygon class="cls-1" points="667.78 199.83 529.39 66.69 529.39 199.83 479.21 199.83 479.21 .92 532.42 .92 668.08 127.32 668.08 .92 718.27 .92 718.27 199.83 667.78 199.83"/><path d="M717.77,1.42V199.33h-49.78l-137.4-132.19-1.69-1.63V199.33h-49.18V1.42h52.51l134.67,125.48,1.68,1.57V1.42h49.19m1-1h-51.18V126.17L532.61,.42h-53.9V200.33h51.18V67.86l137.69,132.47h51.18V.42h.01Z"/></g><g><polygon class="cls-1" points="819.74 199.83 779.2 110.85 779.2 199.83 731.9 199.83 731.9 .92 779.2 .92 779.2 93.38 817.27 .92 877.5 .92 830.77 98.92 881.63 199.83 819.74 199.83"/><path d="M876.71,1.42l-46.29,97.06-.21,.44,.22,.44,50.39,99.97h-60.76l-39.45-86.59-1.91-4.19v90.79h-46.3V1.42h46.3V95.91l1.92-4.68L817.59,1.42h59.12m1.59-1h-61.37l-37.23,90.43V.42h-48.3V200.33h48.3V113.15l39.71,87.18h63.02l-51.12-101.42L878.3,.42h0Z"/></g><g><path class="cls-1" d="M891.6,199.83V.92h244.68c48.07,0,71.44,21.11,71.44,64.52v2.69c0,43.17-24.04,65.06-71.44,65.06h-197.37v66.64h-47.31Zm47.31-110.51h196.54c15.19,0,22.89-7.22,22.89-21.46v-.81c0-14.42-7.7-21.73-22.89-21.73h-196.54v44Z"/><path d="M1136.28,1.42c47.73,0,70.94,20.94,70.94,64.02v2.69c0,19.48-5.05,34.78-15.02,45.5-11.77,12.65-30.58,19.06-55.92,19.06h-197.87v66.64h-46.3V1.42h244.17m-197.87,88.4h197.04c15.52,0,23.39-7.39,23.39-21.96v-.81c0-14.75-7.87-22.23-23.39-22.23h-197.04v45M1136.28,.42h-245.18V200.33h48.3v-66.64h196.87c55.15,0,71.94-29.83,71.94-65.56v-2.69c.01-36.54-16.37-65.02-71.93-65.02h0Zm-196.87,88.4V45.83h196.04c15.55,0,22.39,7.52,22.39,21.23v.81c0,13.7-7.26,20.96-22.39,20.96h-196.04Z"/></g><g><polygon class="cls-1" points="1221.82 199.83 1221.82 .92 1273.5 .92 1273.5 150.16 1467 150.16 1467 199.83 1221.82 199.83"/><path d="M1273,1.42V150.66h193.5v48.67h-244.18V1.42h50.68m1-1h-52.68V200.33h246.18v-50.67h-193.5V.42h0Z"/></g><g><path class="cls-1" d="M1651.92,199.83l-14.51-36.54h-94.18l-13.89,36.54h-48.06L1558.84,.92h61.93l82.1,198.91h-50.95Zm-91.87-80.68h59.93l-30.6-76.84-29.33,76.84Z"/><path d="M1620.43,1.42l81.69,197.91h-49.86l-14.26-35.91-.25-.63h-94.87l-.25,.64-13.64,35.9h-46.99L1559.17,1.42h61.26m-61.11,118.23h61.38l-.55-1.37-29.85-74.97-.95-2.38-.91,2.4-28.61,74.97-.51,1.35M1621.1,.42h-62.61l-77.95,199.91h49.13l13.89-36.54h93.5l14.51,36.54h52.04L1621.1,.42h0Zm-60.33,118.23l28.61-74.97,29.85,74.97h-58.46Z"/></g><g><polygon class="cls-1" points="1733.96 199.83 1733.96 122.79 1651.89 .92 1710.59 .92 1758.75 74.95 1807.74 .92 1861.08 .92 1781.27 122.8 1781.27 199.83 1733.96 199.83"/><path d="M1860.15,1.42l-79.22,120.98-.16,.25v76.68h-46.3V122.64l-.17-.25L1652.84,1.42h57.49l47.59,73.17,.83,1.28,.84-1.27L1808.01,1.43h52.14m1.85-1.01h-54.52l-48.72,73.62L1710.87,.42h-59.91l82.51,122.52v77.38h48.3V122.94L1862,.42h0Z"/></g><g><path class="cls-1" d="M398.94,203.09c-36.01,0-65.3-29.29-65.3-65.3V.92h46.79V139.57c0,10.21,8.3,18.51,18.51,18.51s18.51-8.3,18.51-18.51V.92h46.79V137.78c0,36.01-29.29,65.31-65.3,65.31Z"/><path d="M463.74,1.42V137.78c0,35.73-29.07,64.8-64.8,64.8s-64.8-29.07-64.8-64.8V1.42h45.79V139.57c0,10.48,8.53,19.01,19.01,19.01s19.01-8.53,19.01-19.01V1.42h45.79m1-1h-47.79V139.57c0,9.9-8.1,18.01-18.01,18.01s-18.01-8.1-18.01-18.01V.42h-47.79V137.78c0,36.19,29.61,65.8,65.8,65.8h0c36.19,0,65.8-29.61,65.8-65.8V.42h0Z"/></g></svg>